<svg class="animated" id="freepik_stories-electric-transport" xmlns="http://www.w3.org/2000/svg" viewBox="0 0 500 500" version="1.1" xmlns:xlink="http://www.w3.org/1999/xlink" xmlns:svgjs="http://svgjs.com/svgjs"><style>svg#freepik_stories-electric-transport:not(.animated) .animable {opacity: 0;}svg#freepik_stories-electric-transport.animated #freepik--background-complete--inject-51 {animation: 1s 1 forwards cubic-bezier(.36,-0.01,.5,1.38) zoomIn;animation-delay: 0s;}svg#freepik_stories-electric-transport.animated #freepik--Floor--inject-51 {animation: 1s 1 forwards cubic-bezier(.36,-0.01,.5,1.38) slideUp;animation-delay: 0s;}svg#freepik_stories-electric-transport.animated #freepik--Plant--inject-51 {animation: 1s 1 forwards cubic-bezier(.36,-0.01,.5,1.38) fadeIn;animation-delay: 0s;}svg#freepik_stories-electric-transport.animated #freepik--speech-bubble--inject-51 {animation: 1s 1 forwards cubic-bezier(.36,-0.01,.5,1.38) zoomOut,1.5s Infinite  linear floating;animation-delay: 0s,1s;}svg#freepik_stories-electric-transport.animated #freepik--Character--inject-51 {animation: 1s 1 forwards cubic-bezier(.36,-0.01,.5,1.38) slideDown,1.5s Infinite  linear floating;animation-delay: 0s,1s;}            @keyframes zoomIn {                0% {                    opacity: 0;                    transform: scale(0.5);                }                100% {                    opacity: 1;                    transform: scale(1);                }            }                    @keyframes slideUp {                0% {                    opacity: 0;                    transform: translateY(30px);                }                100% {                    opacity: 1;                    transform: inherit;                }            }                    @keyframes fadeIn {                0% {                    opacity: 0;                }                100% {                    opacity: 1;                }            }                    @keyframes zoomOut {                0% {                    opacity: 0;                    transform: scale(1.5);                }                100% {                    opacity: 1;                    transform: scale(1);                }            }                    @keyframes floating {                0% {                    opacity: 1;                    transform: translateY(0px);                }                50% {                    transform: translateY(-10px);                }                100% {                    opacity: 1;                    transform: translateY(0px);                }            }                    @keyframes slideDown {                0% {                    opacity: 0;                    transform: translateY(-30px);                }                100% {                    opacity: 1;                    transform: translateY(0);                }            }        </style><g id="freepik--background-complete--inject-51" class="animable" style="transform-origin: 255.68px 219.672px;"><rect x="339.49" y="109.14" width="69.1" height="180.87" style="fill: rgb(235, 235, 235); transform-origin: 374.04px 199.575px;" id="el9i6i3qpnog8" class="animable"></rect><rect x="374.04" y="109.14" width="34.55" height="180.87" style="fill: rgb(224, 224, 224); transform-origin: 391.315px 199.575px;" id="elkaeopn5tq5" class="animable"></rect><rect x="347.38" y="87.64" width="24.4" height="21.5" style="fill: rgb(235, 235, 235); transform-origin: 359.58px 98.39px;" id="elp1ejomz40ll" class="animable"></rect><rect x="365.96" y="87.64" width="5.82" height="21.5" style="fill: rgb(224, 224, 224); transform-origin: 368.87px 98.39px;" id="eludv04g5mnbp" class="animable"></rect><rect x="333.73" y="107.88" width="76.88" height="1.25" style="fill: rgb(224, 224, 224); transform-origin: 372.17px 108.505px;" id="eljabuaq01kaj" class="animable"></rect><rect x="353.13" y="118.51" width="5.85" height="12.33" style="fill: rgb(255, 255, 255); transform-origin: 356.055px 124.675px;" id="elxemw9vyb3q" class="animable"></rect><path d="M374,135.69c0,.13-7.74.23-17.28.23s-17.27-.1-17.27-.23,7.73-.24,17.27-.24S374,135.56,374,135.69Z" style="fill: rgb(224, 224, 224); transform-origin: 356.725px 135.685px;" id="eletzwdb3a3ib" class="animable"></path><rect x="387.98" y="118.51" width="5.85" height="12.33" style="fill: rgb(245, 245, 245); transform-origin: 390.905px 124.675px;" id="el6t5lhpdsc33" class="animable"></rect><path d="M408.89,135.69c0,.13-7.74.23-17.28.23s-17.27-.1-17.27-.23,7.73-.24,17.27-.24S408.89,135.56,408.89,135.69Z" style="fill: rgb(235, 235, 235); transform-origin: 391.615px 135.685px;" id="elno1g1fmxvr" class="animable"></path><rect x="387.98" y="143" width="5.85" height="12.33" style="fill: rgb(245, 245, 245); transform-origin: 390.905px 149.165px;" id="els14gxuapahr" class="animable"></rect><path d="M408.89,160.17c0,.13-7.74.24-17.28.24s-17.27-.11-17.27-.24,7.73-.23,17.27-.23S408.89,160,408.89,160.17Z" style="fill: rgb(235, 235, 235); transform-origin: 391.615px 160.175px;" id="eli4wprgg0x6b" class="animable"></path><rect x="387.98" y="168.23" width="5.85" height="12.33" style="fill: rgb(245, 245, 245); transform-origin: 390.905px 174.395px;" id="elzseugbx0h2" class="animable"></rect><path d="M408.89,185.4c0,.13-7.74.23-17.28.23s-17.27-.1-17.27-.23,7.73-.24,17.27-.24S408.89,185.27,408.89,185.4Z" style="fill: rgb(235, 235, 235); transform-origin: 391.615px 185.395px;" id="elxsowzfwjmh" class="animable"></path><rect x="387.98" y="193.45" width="5.85" height="12.33" style="fill: rgb(245, 245, 245); transform-origin: 390.905px 199.615px;" id="el7tyke6ou2rd" class="animable"></rect><path d="M408.89,210.62c0,.13-7.74.24-17.28.24s-17.27-.11-17.27-.24,7.73-.23,17.27-.23S408.89,210.49,408.89,210.62Z" style="fill: rgb(235, 235, 235); transform-origin: 391.615px 210.625px;" id="el9xqr82w3iv" class="animable"></path><rect x="387.98" y="217.95" width="5.85" height="12.33" style="fill: rgb(245, 245, 245); transform-origin: 390.905px 224.115px;" id="eliavnea8r3g9" class="animable"></rect><path d="M408.89,235.13c0,.13-7.74.23-17.28.23s-17.27-.1-17.27-.23,7.73-.24,17.27-.24S408.89,235,408.89,235.13Z" style="fill: rgb(235, 235, 235); transform-origin: 391.615px 235.125px;" id="elkjdcvon39i" class="animable"></path><rect x="387.98" y="242.56" width="5.85" height="12.33" style="fill: rgb(245, 245, 245); transform-origin: 390.905px 248.725px;" id="elym6j5pf8gad" class="animable"></rect><rect x="387.98" y="267.48" width="5.85" height="12.33" style="fill: rgb(245, 245, 245); transform-origin: 390.905px 273.645px;" id="el25pvvz0711n" class="animable"></rect><path d="M408.89,259.73c0,.13-7.74.24-17.28.24s-17.27-.11-17.27-.24,7.73-.24,17.27-.24S408.89,259.6,408.89,259.73Z" style="fill: rgb(235, 235, 235); transform-origin: 391.615px 259.73px;" id="elcc6om5ib48u" class="animable"></path><rect x="353.13" y="143.37" width="5.85" height="12.33" style="fill: rgb(255, 255, 255); transform-origin: 356.055px 149.535px;" id="elxo6y8nnvol" class="animable"></rect><path d="M374,160.55c0,.13-7.74.23-17.28.23s-17.27-.1-17.27-.23,7.73-.24,17.27-.24S374,160.42,374,160.55Z" style="fill: rgb(224, 224, 224); transform-origin: 356.725px 160.545px;" id="ell430o7yiam" class="animable"></path><rect x="353.13" y="168.23" width="5.85" height="12.33" style="fill: rgb(255, 255, 255); transform-origin: 356.055px 174.395px;" id="eljeyfh2vbsp" class="animable"></rect><path d="M374,185.41c0,.13-7.74.23-17.28.23s-17.27-.1-17.27-.23,7.73-.24,17.27-.24S374,185.28,374,185.41Z" style="fill: rgb(224, 224, 224); transform-origin: 356.725px 185.405px;" id="elzpicn4rthz" class="animable"></path><rect x="353.13" y="193.09" width="5.85" height="12.33" style="fill: rgb(255, 255, 255); transform-origin: 356.055px 199.255px;" id="elf4n1jdbkm3o" class="animable"></rect><path d="M374,210.27c0,.13-7.74.23-17.28.23s-17.27-.1-17.27-.23,7.73-.24,17.27-.24S374,210.14,374,210.27Z" style="fill: rgb(224, 224, 224); transform-origin: 356.725px 210.265px;" id="elfg8d222d4z" class="animable"></path><rect x="353.13" y="217.95" width="5.85" height="12.33" style="fill: rgb(255, 255, 255); transform-origin: 356.055px 224.115px;" id="elrnveuif1su" class="animable"></rect><path d="M374,235.13c0,.13-7.74.23-17.28.23s-17.27-.1-17.27-.23,7.73-.24,17.27-.24S374,235,374,235.13Z" style="fill: rgb(224, 224, 224); transform-origin: 356.725px 235.125px;" id="elyq64omktwz" class="animable"></path><rect x="353.13" y="242.81" width="5.85" height="12.33" style="fill: rgb(255, 255, 255); transform-origin: 356.055px 248.975px;" id="elt8ioalx300m" class="animable"></rect><path d="M374,260c0,.13-7.74.23-17.28.23s-17.27-.1-17.27-.23,7.73-.24,17.27-.24S374,259.86,374,260Z" style="fill: rgb(224, 224, 224); transform-origin: 356.725px 259.995px;" id="el8sohb0pvz1o" class="animable"></path><rect x="353.13" y="267.67" width="5.85" height="12.33" style="fill: rgb(255, 255, 255); transform-origin: 356.055px 273.835px;" id="el3rrvndqrhxo" class="animable"></rect><rect x="391.83" y="195.32" width="75.58" height="197.83" style="fill: rgb(235, 235, 235); transform-origin: 429.62px 294.235px;" id="elal6dnwzikdv" class="animable"></rect><rect x="429.62" y="195.32" width="37.79" height="197.83" style="fill: rgb(224, 224, 224); transform-origin: 448.515px 294.235px;" id="elyrcs9rzcrbo" class="animable"></rect><rect x="400.46" y="171.8" width="26.69" height="23.52" style="fill: rgb(235, 235, 235); transform-origin: 413.805px 183.56px;" id="elcuevi41nqb" class="animable"></rect><rect x="420.79" y="171.8" width="6.36" height="23.52" style="fill: rgb(224, 224, 224); transform-origin: 423.97px 183.56px;" id="eljtk8gjctjn" class="animable"></rect><rect x="385.53" y="193.95" width="84.09" height="1.37" style="fill: rgb(224, 224, 224); transform-origin: 427.575px 194.635px;" id="el4hhumawenb5" class="animable"></rect><rect x="406.75" y="205.58" width="6.4" height="13.49" style="fill: rgb(255, 255, 255); transform-origin: 409.95px 212.325px;" id="elpasgcqq97d" class="animable"></rect><path d="M429.62,224.36c0,.14-8.46.26-18.89.26s-18.9-.12-18.9-.26,8.46-.26,18.9-.26S429.62,224.22,429.62,224.36Z" style="fill: rgb(224, 224, 224); transform-origin: 410.725px 224.36px;" id="elv52zlved3ud" class="animable"></path><rect x="444.87" y="205.58" width="6.4" height="13.49" style="fill: rgb(245, 245, 245); transform-origin: 448.07px 212.325px;" id="el5iariluy8uv" class="animable"></rect><path d="M467.74,224.36c0,.14-8.46.26-18.89.26s-18.9-.12-18.9-.26,8.46-.26,18.9-.26S467.74,224.22,467.74,224.36Z" style="fill: rgb(235, 235, 235); transform-origin: 448.845px 224.36px;" id="elwwcalmv796o" class="animable"></path><rect x="444.87" y="232.36" width="6.4" height="13.49" style="fill: rgb(245, 245, 245); transform-origin: 448.07px 239.105px;" id="elxg60e4kikwb" class="animable"></rect><path d="M467.74,251.14c0,.14-8.46.26-18.89.26s-18.9-.12-18.9-.26,8.46-.26,18.9-.26S467.74,251,467.74,251.14Z" style="fill: rgb(235, 235, 235); transform-origin: 448.845px 251.14px;" id="elxzs8tyyza08" class="animable"></path><rect x="444.87" y="259.95" width="6.4" height="13.49" style="fill: rgb(245, 245, 245); transform-origin: 448.07px 266.695px;" id="ellvj72ddxm2" class="animable"></rect><path d="M467.74,278.73c0,.14-8.46.26-18.89.26s-18.9-.12-18.9-.26,8.46-.26,18.9-.26S467.74,278.59,467.74,278.73Z" style="fill: rgb(235, 235, 235); transform-origin: 448.845px 278.73px;" id="el1zlyyb3jt81" class="animable"></path><rect x="444.87" y="287.54" width="6.4" height="13.49" style="fill: rgb(245, 245, 245); transform-origin: 448.07px 294.285px;" id="el15yinlvx26d" class="animable"></rect><path d="M467.74,306.32c0,.14-8.46.26-18.89.26s-18.9-.12-18.9-.26,8.46-.26,18.9-.26S467.74,306.18,467.74,306.32Z" style="fill: rgb(235, 235, 235); transform-origin: 448.845px 306.32px;" id="elcti29gy2l0p" class="animable"></path><rect x="444.87" y="314.34" width="6.4" height="13.49" style="fill: rgb(245, 245, 245); transform-origin: 448.07px 321.085px;" id="elcyn5x1nnt6s" class="animable"></rect><path d="M467.74,333.12c0,.15-8.46.26-18.89.26s-18.9-.11-18.9-.26,8.46-.25,18.9-.25S467.74,333,467.74,333.12Z" style="fill: rgb(235, 235, 235); transform-origin: 448.845px 333.125px;" id="elhvu5eqmyudd" class="animable"></path><rect x="444.87" y="341.25" width="6.4" height="13.49" style="fill: rgb(245, 245, 245); transform-origin: 448.07px 347.995px;" id="eldxj75ljv8h8" class="animable"></rect><rect x="444.87" y="368.51" width="6.4" height="13.49" style="fill: rgb(245, 245, 245); transform-origin: 448.07px 375.255px;" id="el6lam3m1up22" class="animable"></rect><path d="M467.74,360c0,.14-8.46.26-18.89.26S430,360.17,430,360s8.46-.26,18.9-.26S467.74,359.89,467.74,360Z" style="fill: rgb(235, 235, 235); transform-origin: 448.87px 360px;" id="ellmiixxkom5" class="animable"></path><rect x="406.75" y="232.77" width="6.4" height="13.49" style="fill: rgb(255, 255, 255); transform-origin: 409.95px 239.515px;" id="el7ajs2valr42" class="animable"></rect><path d="M429.62,251.55c0,.14-8.46.26-18.89.26s-18.9-.12-18.9-.26,8.46-.26,18.9-.26S429.62,251.41,429.62,251.55Z" style="fill: rgb(224, 224, 224); transform-origin: 410.725px 251.55px;" id="el6w83k3zqol" class="animable"></path><rect x="406.75" y="259.96" width="6.4" height="13.49" style="fill: rgb(255, 255, 255); transform-origin: 409.95px 266.705px;" id="el37xzhsvcsbl" class="animable"></rect><path d="M429.62,278.74c0,.14-8.46.26-18.89.26s-18.9-.12-18.9-.26,8.46-.26,18.9-.26S429.62,278.6,429.62,278.74Z" style="fill: rgb(224, 224, 224); transform-origin: 410.725px 278.74px;" id="elxd8481xxkvr" class="animable"></path><rect x="406.75" y="287.15" width="6.4" height="13.49" style="fill: rgb(255, 255, 255); transform-origin: 409.95px 293.895px;" id="el4orv2mbirtx" class="animable"></rect><path d="M429.62,305.93c0,.14-8.46.26-18.89.26s-18.9-.12-18.9-.26,8.46-.26,18.9-.26S429.62,305.79,429.62,305.93Z" style="fill: rgb(224, 224, 224); transform-origin: 410.725px 305.93px;" id="el6lel76ah1j" class="animable"></path><rect x="406.75" y="314.34" width="6.4" height="13.49" style="fill: rgb(255, 255, 255); transform-origin: 409.95px 321.085px;" id="elt7ukv9mznx" class="animable"></rect><path d="M429.62,333.12c0,.15-8.46.26-18.89.26s-18.9-.11-18.9-.26,8.46-.25,18.9-.25S429.62,333,429.62,333.12Z" style="fill: rgb(224, 224, 224); transform-origin: 410.725px 333.125px;" id="elqfri3cqibd" class="animable"></path><rect x="406.75" y="341.53" width="6.4" height="13.49" style="fill: rgb(255, 255, 255); transform-origin: 409.95px 348.275px;" id="elm0b0itv7lg" class="animable"></rect><path d="M429.62,360.31c0,.15-8.46.26-18.89.26s-18.9-.11-18.9-.26,8.46-.25,18.9-.25S429.62,360.17,429.62,360.31Z" style="fill: rgb(224, 224, 224); transform-origin: 410.725px 360.315px;" id="elieqa9atazb" class="animable"></path><rect x="406.75" y="368.72" width="6.4" height="13.49" style="fill: rgb(255, 255, 255); transform-origin: 409.95px 375.465px;" id="elci1vibq26sv" class="animable"></rect><rect x="91.16" y="91.61" width="78.43" height="248.55" style="fill: rgb(245, 245, 245); transform-origin: 130.375px 215.885px;" id="el1fwj8cj5ksj" class="animable"></rect><rect x="130.38" y="91.61" width="39.21" height="247.87" style="fill: rgb(235, 235, 235); transform-origin: 149.985px 215.545px;" id="el9c4z5m1teeg" class="animable"></rect><rect x="100.12" y="67.2" width="27.69" height="24.4" style="fill: rgb(245, 245, 245); transform-origin: 113.965px 79.4px;" id="elm3e47p5km1b" class="animable"></rect><rect x="121.21" y="67.2" width="6.6" height="24.4" style="fill: rgb(235, 235, 235); transform-origin: 124.51px 79.4px;" id="el24o1twkngq6" class="animable"></rect><polyline points="84.63 91.61 84.63 90.18 171.89 90.18 171.89 91.61" style="fill: rgb(224, 224, 224); transform-origin: 128.26px 90.895px;" id="elfwafpk0u1w" class="animable"></polyline><rect x="106.65" y="102.25" width="6.64" height="14" style="fill: rgb(250, 250, 250); transform-origin: 109.97px 109.25px;" id="el6gll29khibf" class="animable"></rect><path d="M130.38,121.74c0,.15-8.78.27-19.61.27s-19.61-.12-19.61-.27,8.78-.27,19.61-.27S130.38,121.59,130.38,121.74Z" style="fill: rgb(224, 224, 224); transform-origin: 110.77px 121.74px;" id="eloxu3ktanj7" class="animable"></path><rect x="146.2" y="102.25" width="6.64" height="14" style="fill: rgb(224, 224, 224); transform-origin: 149.52px 109.25px;" id="elsiilct4q7dj" class="animable"></rect><path d="M169.93,121.74c0,.15-8.78.27-19.6.27s-19.61-.12-19.61-.27,8.78-.27,19.61-.27S169.93,121.59,169.93,121.74Z" style="fill: rgb(224, 224, 224); transform-origin: 150.325px 121.74px;" id="elgo73j9yqbbb" class="animable"></path><rect x="146.2" y="130.04" width="6.64" height="14" style="fill: rgb(224, 224, 224); transform-origin: 149.52px 137.04px;" id="elt6tvint4jho" class="animable"></rect><path d="M169.93,149.53c0,.15-8.78.27-19.6.27s-19.61-.12-19.61-.27,8.78-.27,19.61-.27S169.93,149.38,169.93,149.53Z" style="fill: rgb(224, 224, 224); transform-origin: 150.325px 149.53px;" id="elt7e5jkzsjwd" class="animable"></path><rect x="146.2" y="158.67" width="6.64" height="14" style="fill: rgb(224, 224, 224); transform-origin: 149.52px 165.67px;" id="elgrmj12soesm" class="animable"></rect><path d="M169.93,178.16c0,.15-8.78.27-19.6.27s-19.61-.12-19.61-.27,8.78-.27,19.61-.27S169.93,178,169.93,178.16Z" style="fill: rgb(224, 224, 224); transform-origin: 150.325px 178.16px;" id="el7ivpgpqyulv" class="animable"></path><rect x="146.2" y="187.3" width="6.64" height="14" style="fill: rgb(224, 224, 224); transform-origin: 149.52px 194.3px;" id="eltxve9urf7bk" class="animable"></rect><path d="M169.93,206.79c0,.15-8.78.27-19.6.27s-19.61-.12-19.61-.27,8.78-.27,19.61-.27S169.93,206.64,169.93,206.79Z" style="fill: rgb(224, 224, 224); transform-origin: 150.325px 206.79px;" id="elm1xq0ngw9y" class="animable"></path><rect x="146.2" y="215.11" width="6.64" height="14" style="fill: rgb(224, 224, 224); transform-origin: 149.52px 222.11px;" id="eljvt19ojcjko" class="animable"></rect><path d="M169.93,234.6c0,.15-8.78.27-19.6.27s-19.61-.12-19.61-.27,8.78-.27,19.61-.27S169.93,234.45,169.93,234.6Z" style="fill: rgb(224, 224, 224); transform-origin: 150.325px 234.6px;" id="elqicty10bwt" class="animable"></path><rect x="146.2" y="243.03" width="6.64" height="14" style="fill: rgb(224, 224, 224); transform-origin: 149.52px 250.03px;" id="elutbtn87h19" class="animable"></rect><rect x="146.2" y="271.32" width="6.64" height="14" style="fill: rgb(224, 224, 224); transform-origin: 149.52px 278.32px;" id="ell9y34jgpoyr" class="animable"></rect><path d="M169.93,262.52c0,.15-8.78.27-19.6.27s-19.61-.12-19.61-.27,8.78-.26,19.61-.26S169.93,262.38,169.93,262.52Z" style="fill: rgb(224, 224, 224); transform-origin: 150.325px 262.525px;" id="elqhkonkh2leo" class="animable"></path><rect x="106.65" y="130.46" width="6.64" height="14" style="fill: rgb(250, 250, 250); transform-origin: 109.97px 137.46px;" id="elszs7b1t69h" class="animable"></rect><path d="M130.38,150c0,.14-8.78.26-19.61.26s-19.61-.12-19.61-.26,8.78-.27,19.61-.27S130.38,149.81,130.38,150Z" style="fill: rgb(224, 224, 224); transform-origin: 110.77px 149.995px;" id="eli3ta5w86dm" class="animable"></path><rect x="106.65" y="158.68" width="6.64" height="14" style="fill: rgb(250, 250, 250); transform-origin: 109.97px 165.68px;" id="eln9aeo8kn3ro" class="animable"></rect><path d="M130.38,178.17c0,.15-8.78.27-19.61.27s-19.61-.12-19.61-.27,8.78-.27,19.61-.27S130.38,178,130.38,178.17Z" style="fill: rgb(224, 224, 224); transform-origin: 110.77px 178.17px;" id="el4f9gn7wk1gb" class="animable"></path><rect x="106.65" y="186.89" width="6.64" height="14" style="fill: rgb(250, 250, 250); transform-origin: 109.97px 193.89px;" id="elarohobyke58" class="animable"></rect><path d="M130.38,206.39c0,.14-8.78.26-19.61.26s-19.61-.12-19.61-.26,8.78-.27,19.61-.27S130.38,206.24,130.38,206.39Z" style="fill: rgb(224, 224, 224); transform-origin: 110.77px 206.385px;" id="el5clbt5q1cc" class="animable"></path><rect x="106.65" y="215.11" width="6.64" height="14" style="fill: rgb(250, 250, 250); transform-origin: 109.97px 222.11px;" id="elacz3m5wed4r" class="animable"></rect><path d="M130.38,234.6c0,.15-8.78.27-19.61.27s-19.61-.12-19.61-.27,8.78-.27,19.61-.27S130.38,234.45,130.38,234.6Z" style="fill: rgb(224, 224, 224); transform-origin: 110.77px 234.6px;" id="el16h7z0vyy9m" class="animable"></path><rect x="106.65" y="243.33" width="6.64" height="14" style="fill: rgb(250, 250, 250); transform-origin: 109.97px 250.33px;" id="elzkmbnzycddb" class="animable"></rect><path d="M130.38,262.82c0,.14-8.78.26-19.61.26s-19.61-.12-19.61-.26,8.78-.27,19.61-.27S130.38,262.67,130.38,262.82Z" style="fill: rgb(224, 224, 224); transform-origin: 110.77px 262.815px;" id="eldtmcay0cesl" class="animable"></path><rect x="106.65" y="271.54" width="6.64" height="14" style="fill: rgb(250, 250, 250); transform-origin: 109.97px 278.54px;" id="els6275e4sdd" class="animable"></rect><rect x="156.45" y="258.1" width="71.66" height="136" style="fill: rgb(224, 224, 224); transform-origin: 192.28px 326.1px;" id="elaankdgj0rnf" class="animable"></rect><rect x="194.5" y="258.1" width="33.6" height="136" style="fill: rgb(235, 235, 235); transform-origin: 211.3px 326.1px;" id="el8d93p1wq44l" class="animable"></rect><rect x="171.47" y="270.9" width="6.44" height="15.65" style="fill: rgb(245, 245, 245); transform-origin: 174.69px 278.725px;" id="el6utdtvybcby" class="animable"></rect><rect x="171.47" y="332.17" width="6.44" height="15.65" style="fill: rgb(245, 245, 245); transform-origin: 174.69px 339.995px;" id="eltz4sdfjsp5l" class="animable"></rect><path d="M194.5,292.7c0,.13-8.52.24-19,.24s-19-.11-19-.24,8.51-.25,19-.25S194.5,292.56,194.5,292.7Z" style="fill: rgb(245, 245, 245); transform-origin: 175.5px 292.695px;" id="elp4e81qgs23" class="animable"></path><rect x="171.47" y="301.77" width="6.44" height="15.65" style="fill: rgb(245, 245, 245); transform-origin: 174.69px 309.595px;" id="ell8v47mni0mg" class="animable"></rect><path d="M194.5,323.56c0,.14-8.52.25-19,.25s-19-.11-19-.25,8.51-.24,19-.24S194.5,323.43,194.5,323.56Z" style="fill: rgb(245, 245, 245); transform-origin: 175.5px 323.565px;" id="elrscalp4pkm" class="animable"></path><rect x="201.64" y="270.9" width="6.44" height="15.65" style="fill: rgb(224, 224, 224); transform-origin: 204.86px 278.725px;" id="el84kzre4zlaw" class="animable"></rect><rect x="215.62" y="270.9" width="6.44" height="15.65" style="fill: rgb(224, 224, 224); transform-origin: 218.84px 278.725px;" id="eln7yz8efbre8" class="animable"></rect><rect x="201.64" y="300.6" width="6.44" height="15.65" style="fill: rgb(224, 224, 224); transform-origin: 204.86px 308.425px;" id="elshg3sjrvd0g" class="animable"></rect><rect x="215.62" y="300.6" width="6.44" height="15.65" style="fill: rgb(224, 224, 224); transform-origin: 218.84px 308.425px;" id="elzvxxdqy6uh9" class="animable"></rect><rect x="201.64" y="330.31" width="6.44" height="15.65" style="fill: rgb(224, 224, 224); transform-origin: 204.86px 338.135px;" id="el7mignz4mkyh" class="animable"></rect><rect x="215.62" y="330.31" width="6.44" height="15.65" style="fill: rgb(224, 224, 224); transform-origin: 218.84px 338.135px;" id="elmw4wjpkhcig" class="animable"></rect><rect x="151.06" y="254.81" width="82.43" height="3.41" style="fill: rgb(224, 224, 224); transform-origin: 192.275px 256.515px;" id="elivlt0hpobwd" class="animable"></rect><path d="M228.6,258.54c0,.14-16,.25-35.76.25s-35.78-.11-35.78-.25,16-.24,35.78-.24S228.6,258.41,228.6,258.54Z" style="fill: rgb(235, 235, 235); transform-origin: 192.83px 258.545px;" id="eldrbwoy8fwfd" class="animable"></path><rect x="290.13" y="242.52" width="114.49" height="151.01" style="fill: rgb(235, 235, 235); transform-origin: 347.375px 318.025px;" id="el081wjudnkkoe" class="animable"></rect><rect x="350.94" y="242.52" width="53.68" height="151.01" style="fill: rgb(224, 224, 224); transform-origin: 377.78px 318.025px;" id="el6lz4in0z46a" class="animable"></rect><rect x="314.14" y="262.96" width="10.29" height="25.01" style="fill: rgb(245, 245, 245); transform-origin: 319.285px 275.465px;" id="el6kyskwvqs2c" class="animable"></rect><rect x="314.14" y="360.85" width="10.29" height="25.01" style="fill: rgb(245, 245, 245); transform-origin: 319.285px 373.355px;" id="elxdnjod016b" class="animable"></rect><path d="M350.94,297.79c0,.28-13.61.51-30.4.51s-30.41-.23-30.41-.51,13.61-.51,30.41-.51S350.94,297.51,350.94,297.79Z" style="fill: rgb(245, 245, 245); transform-origin: 320.535px 297.79px;" id="ell7b7mcdpkco" class="animable"></path><rect x="314.14" y="312.28" width="10.29" height="25.01" style="fill: rgb(245, 245, 245); transform-origin: 319.285px 324.785px;" id="el6adr6dok2vj" class="animable"></rect><path d="M350.94,347.11c0,.28-13.61.5-30.4.5s-30.41-.22-30.41-.5,13.61-.51,30.41-.51S350.94,346.82,350.94,347.11Z" style="fill: rgb(245, 245, 245); transform-origin: 320.535px 347.105px;" id="el58of4cmx2ly" class="animable"></path><rect x="362.34" y="262.96" width="10.29" height="25.01" style="fill: rgb(245, 245, 245); transform-origin: 367.485px 275.465px;" id="elp935zgx4zk" class="animable"></rect><rect x="384.67" y="262.96" width="10.29" height="25.01" style="fill: rgb(245, 245, 245); transform-origin: 389.815px 275.465px;" id="el4dluoplvy7k" class="animable"></rect><rect x="362.34" y="310.42" width="10.29" height="25.01" style="fill: rgb(245, 245, 245); transform-origin: 367.485px 322.925px;" id="el5za76v0o8v" class="animable"></rect><rect x="384.67" y="310.42" width="10.29" height="25.01" style="fill: rgb(245, 245, 245); transform-origin: 389.815px 322.925px;" id="elswxoyjjqhoe" class="animable"></rect><rect x="362.34" y="357.88" width="10.29" height="25.01" style="fill: rgb(245, 245, 245); transform-origin: 367.485px 370.385px;" id="el1b0tiqunhvt" class="animable"></rect><rect x="384.67" y="357.88" width="10.29" height="25.01" style="fill: rgb(245, 245, 245); transform-origin: 389.815px 370.385px;" id="elusw2q05mf3e" class="animable"></rect><rect x="281.52" y="237.26" width="131.71" height="5.45" style="fill: rgb(224, 224, 224); transform-origin: 347.375px 239.985px;" id="elzliuoct36m" class="animable"></rect><path d="M405.42,243.22c0,.28-25.59.51-57.15.51s-57.15-.23-57.15-.51,25.58-.51,57.15-.51S405.42,242.94,405.42,243.22Z" style="fill: rgb(235, 235, 235); transform-origin: 348.27px 243.22px;" id="eltjsqz3y5js" class="animable"></path><polygon points="157.11 393.86 41.7 393.86 41.2 211.47 156.61 211.47 157.11 393.86" style="fill: rgb(235, 235, 235); transform-origin: 99.155px 302.665px;" id="eli8zf9o9ed4" class="animable"></polygon><rect x="98.9" y="211.47" width="57.7" height="182.39" style="fill: rgb(224, 224, 224); transform-origin: 127.75px 302.665px;" id="el6ushmaz7f33" class="animable"></rect><rect x="54.38" y="175.56" width="40.75" height="35.91" style="fill: rgb(235, 235, 235); transform-origin: 74.755px 193.515px;" id="eloqigwu4gq1k" class="animable"></rect><rect x="85.42" y="175.56" width="9.71" height="35.91" style="fill: rgb(224, 224, 224); transform-origin: 90.275px 193.515px;" id="elzrm4themrs" class="animable"></rect><rect x="31.58" y="209.38" width="128.4" height="2.09" style="fill: rgb(224, 224, 224); transform-origin: 95.78px 210.425px;" id="elpxzgtcoihcf" class="animable"></rect><rect x="63.98" y="227.13" width="9.77" height="20.6" style="fill: rgb(255, 255, 255); transform-origin: 68.865px 237.43px;" id="eli3oebwxu2ui" class="animable"></rect><path d="M98.9,255.81c0,.22-12.92.4-28.85.4s-28.85-.18-28.85-.4,12.92-.39,28.85-.39S98.9,255.6,98.9,255.81Z" style="fill: rgb(224, 224, 224); transform-origin: 70.05px 255.815px;" id="el22n7ybhx79b" class="animable"></path><rect x="122.19" y="227.13" width="9.77" height="20.6" style="fill: rgb(245, 245, 245); transform-origin: 127.075px 237.43px;" id="elffy3tlfcqsf" class="animable"></rect><path d="M157.11,255.81c0,.22-12.92.4-28.85.4s-28.85-.18-28.85-.4,12.91-.39,28.85-.39S157.11,255.6,157.11,255.81Z" style="fill: rgb(235, 235, 235); transform-origin: 128.26px 255.815px;" id="elah3bu75s3a" class="animable"></path><rect x="122.19" y="268.03" width="9.77" height="20.6" style="fill: rgb(245, 245, 245); transform-origin: 127.075px 278.33px;" id="elxcr34r7v81" class="animable"></rect><path d="M157.11,296.71c0,.22-12.92.39-28.85.39s-28.85-.17-28.85-.39,12.91-.39,28.85-.39S157.11,296.49,157.11,296.71Z" style="fill: rgb(235, 235, 235); transform-origin: 128.26px 296.71px;" id="eli2cv9yexr8" class="animable"></path><rect x="122.19" y="310.16" width="9.77" height="20.6" style="fill: rgb(245, 245, 245); transform-origin: 127.075px 320.46px;" id="eloq03w7i9sws" class="animable"></rect><path d="M157.11,338.84c0,.22-12.92.39-28.85.39s-28.85-.17-28.85-.39,12.91-.4,28.85-.4S157.11,338.62,157.11,338.84Z" style="fill: rgb(235, 235, 235); transform-origin: 128.26px 338.835px;" id="elpek8rgpijb8" class="animable"></path><rect x="122.19" y="352.28" width="9.77" height="20.6" style="fill: rgb(245, 245, 245); transform-origin: 127.075px 362.58px;" id="elywll6nu9kwq" class="animable"></rect><path d="M157.11,381c0,.21-12.92.39-28.85.39s-28.85-.18-28.85-.39,12.91-.4,28.85-.4S157.11,380.75,157.11,381Z" style="fill: rgb(235, 235, 235); transform-origin: 128.26px 380.995px;" id="elm3udo645ad" class="animable"></path><rect x="63.98" y="268.65" width="9.77" height="20.6" style="fill: rgb(255, 255, 255); transform-origin: 68.865px 278.95px;" id="elyj1rpo9yu4o" class="animable"></rect><path d="M98.9,297.33c0,.22-12.92.4-28.85.4s-28.85-.18-28.85-.4,12.92-.39,28.85-.39S98.9,297.12,98.9,297.33Z" style="fill: rgb(224, 224, 224); transform-origin: 70.05px 297.335px;" id="elabaeclj6nv" class="animable"></path><rect x="63.98" y="310.17" width="9.77" height="20.6" style="fill: rgb(255, 255, 255); transform-origin: 68.865px 320.47px;" id="elkmpxhp3m6f" class="animable"></rect><path d="M98.9,338.85c0,.22-12.92.4-28.85.4s-28.85-.18-28.85-.4,12.92-.39,28.85-.39S98.9,338.64,98.9,338.85Z" style="fill: rgb(224, 224, 224); transform-origin: 70.05px 338.855px;" id="elfvk7efm7p1n" class="animable"></path><rect x="63.98" y="351.69" width="9.77" height="20.6" style="fill: rgb(255, 255, 255); transform-origin: 68.865px 361.99px;" id="eljf49lpbqgoj" class="animable"></rect><path d="M98.9,380.37c0,.22-12.92.4-28.85.4s-28.85-.18-28.85-.4S54.12,380,70.05,380,98.9,380.15,98.9,380.37Z" style="fill: rgb(224, 224, 224); transform-origin: 70.05px 380.385px;" id="eltt57l29q2a" class="animable"></path><path d="M484.68,393.86c0,.15-102.55.26-229,.26s-229-.11-229-.26,102.52-.26,229-.26S484.68,393.72,484.68,393.86Z" style="fill: rgb(224, 224, 224); transform-origin: 255.68px 393.86px;" id="elrfd2zgf0jhj" class="animable"></path><path d="M484.68,405.94c0,.14-102.55.26-229,.26s-229-.12-229-.26,102.52-.26,229-.26S484.68,405.79,484.68,405.94Z" style="fill: rgb(224, 224, 224); transform-origin: 255.68px 405.94px;" id="elo45mr72p2g" class="animable"></path><path d="M354.69,47.78c.46-3.36-4.29-6.13-7.85-6.41-1.7-.14-3.47.12-5.08-.44-3.49-1.22-4.89-5.73-8.29-7.16-2.55-1.08-5.48-.12-8,1.12s-4.9,2.81-7.66,3c-2.4.16-5-.73-7.1.44-1.57.87-2.39,2.67-3.83,3.74a9.08,9.08,0,0,1-5,1.35,14.14,14.14,0,0,0-5.15.84c-1.6.73-2.91,2.42-2.58,4.14Z" style="fill: rgb(250, 250, 250); transform-origin: 324.41px 40.8506px;" id="ellt8z0elsgu8" class="animable"></path><path d="M99.75,47.93c.47-3.44-4.38-6.26-8-6.55-1.73-.14-3.53.12-5.18-.45-3.56-1.24-5-5.85-8.46-7.31-2.6-1.1-5.59-.12-8.11,1.15s-5,2.86-7.83,3c-2.44.16-5.1-.75-7.24.45-1.6.89-2.44,2.73-3.91,3.81a9.27,9.27,0,0,1-5.1,1.38,14.49,14.49,0,0,0-5.26.86c-1.63.75-3,2.47-2.64,4.22Z" style="fill: rgb(235, 235, 235); transform-origin: 68.8719px 40.8166px;" id="elj86rj9jq03k" class="animable"></path><path d="M466.56,74.6c.65-4.73-6-8.63-11.05-9-2.39-.2-4.88.17-7.15-.62-4.91-1.71-6.87-8.06-11.67-10.08-3.58-1.52-7.71-.17-11.18,1.58s-6.91,3.95-10.79,4.2c-3.38.21-7.05-1-10,.61-2.2,1.23-3.36,3.77-5.39,5.26s-4.57,1.78-7,1.91-5,.16-7.26,1.19-4.1,3.4-3.63,5.82Z" style="fill: rgb(245, 245, 245); transform-origin: 423.985px 64.855px;" id="elnkuvc8dbhg9" class="animable"></path></g><g id="freepik--Floor--inject-51" class="animable" style="transform-origin: 250px 466.83px;"><path d="M477.07,466.83c0,.14-101.67.26-227.06.26S22.93,467,22.93,466.83s101.65-.26,227.08-.26S477.07,466.68,477.07,466.83Z" style="fill: rgb(38, 50, 56); transform-origin: 250px 466.83px;" id="elgykecmva69t" class="animable"></path></g><g id="freepik--Plant--inject-51" class="animable" style="transform-origin: 247.113px 443.921px;"><path d="M81.44,420.6a8.65,8.65,0,0,1,4.48,5.09,15.23,15.23,0,0,1,.6,6.88c-.51,4.47-3,9-5.78,12.56-3.76-3.29-4.63-9-4.89-11.95-.4-4.64,1.68-13.27,5.59-12.58" style="fill: rgb(255, 114, 94); transform-origin: 81.237px 432.846px;" id="el0lvm5g7i9rg" class="animable"></path><path d="M85.11,452.5a7.38,7.38,0,0,1,2.39-7,9.8,9.8,0,0,1,7.24-2.26,4.15,4.15,0,0,1,3.18,1.42,3.18,3.18,0,0,1,0,3.21,6.49,6.49,0,0,1-2.38,2.33c-3.26,2.05-6.79,3.43-10.48,2.32" style="fill: rgb(255, 114, 94); transform-origin: 91.6618px 448.055px;" id="elefbkbs1vm5h" class="animable"></path><path d="M80.29,466.21a5.76,5.76,0,0,1,.13-.92c.12-.65.27-1.48.46-2.48a25.73,25.73,0,0,1,2.56-7.93,15.81,15.81,0,0,1,5.69-6.05,10.78,10.78,0,0,1,2.32-1c.28-.09.51-.13.67-.17a.71.71,0,0,1,.24,0A16,16,0,0,0,89.25,449a16.42,16.42,0,0,0-5.53,6,28.12,28.12,0,0,0-2.62,7.81c-.22,1-.41,1.89-.55,2.46A6.29,6.29,0,0,1,80.29,466.21Z" style="fill: rgb(38, 50, 56); transform-origin: 86.325px 456.93px;" id="elkbsua7t7p4" class="animable"></path><path d="M80.43,427.31a1.87,1.87,0,0,1,0,.4c0,.3,0,.68.06,1.15.06,1,.12,2.45.17,4.24.12,3.59.21,8.54.19,14s-.16,10.42-.31,14c-.07,1.79-.14,3.24-.2,4.24,0,.47-.06.85-.08,1.15a1.87,1.87,0,0,1,0,.4,1.79,1.79,0,0,1,0-.4c0-.3,0-.68,0-1.15,0-1,.06-2.49.1-4.25.09-3.58.19-8.52.21-14s0-10.41-.09-14c0-1.76,0-3.2-.06-4.24,0-.47,0-.86,0-1.15A1.85,1.85,0,0,1,80.43,427.31Z" style="fill: rgb(38, 50, 56); transform-origin: 80.5508px 447.1px;" id="elxerjqjxzfrp" class="animable"></path><path d="M78.6,455.22a17.27,17.27,0,0,0-9.44-12.66c-1.25-.6-2.9-1-3.93-.06s-.8,2.62-.3,3.92a14.76,14.76,0,0,0,13.58,9.17" style="fill: rgb(255, 114, 94); transform-origin: 71.553px 448.765px;" id="elpbzo8nd7sg" class="animable"></path><path d="M69.77,446.8a3.86,3.86,0,0,1,.8.35,7.43,7.43,0,0,1,.9.48c.34.21.75.42,1.15.72a16.19,16.19,0,0,1,1.32,1,15.93,15.93,0,0,1,1.4,1.27A19.62,19.62,0,0,1,78,454a18.89,18.89,0,0,1,1.76,4c.17.65.35,1.26.44,1.84a13.14,13.14,0,0,1,.22,1.63c.07.5,0,1,.07,1.36s0,.74,0,1a4.49,4.49,0,0,1-.1.87c-.07,0,.05-1.25-.17-3.22a13.07,13.07,0,0,0-.26-1.61,18.36,18.36,0,0,0-.46-1.8,20.13,20.13,0,0,0-1.74-3.88,20.52,20.52,0,0,0-2.6-3.37,14.36,14.36,0,0,0-1.36-1.27,14.72,14.72,0,0,0-1.27-1C70.87,447.38,69.74,446.86,69.77,446.8Z" style="fill: rgb(38, 50, 56); transform-origin: 75.1453px 455.75px;" id="ellneb7u6g5t" class="animable"></path><path d="M388.1,428.27a11.28,11.28,0,0,1,1.2,1.21c.37.4.82.9,1.32,1.5s1.08,1.27,1.65,2.07a60.67,60.67,0,0,1,3.89,5.69,69.71,69.71,0,0,1,3.86,7.5,67,67,0,0,1,2.84,8,60.86,60.86,0,0,1,1.5,6.72c.19,1,.28,1.85.38,2.62s.16,1.44.19,2a11.4,11.4,0,0,1,.07,1.7,10.28,10.28,0,0,1-.27-1.68c-.06-.54-.15-1.2-.28-2s-.24-1.64-.45-2.59c-.35-1.92-.89-4.18-1.6-6.66A67,67,0,0,0,395.74,439a68,68,0,0,0-3.76-5.72c-.56-.81-1.12-1.49-1.59-2.1s-.89-1.14-1.25-1.55A9.87,9.87,0,0,1,388.1,428.27Z" style="fill: rgb(38, 50, 56); transform-origin: 396.553px 447.775px;" id="el5r6514e43bi" class="animable"></path><path d="M422.09,421.89a17.48,17.48,0,0,1-1.54,1.16,26,26,0,0,0-3.79,3.59,34.31,34.31,0,0,0-7.3,15.41,73.76,73.76,0,0,0-1.1,17.22c.09,2.16.16,3.94.21,5.26l0,1.43a1.52,1.52,0,0,1,0,.5,2.89,2.89,0,0,1-.08-.5c0-.38-.09-.85-.14-1.42-.11-1.24-.25-3-.37-5.25a68.34,68.34,0,0,1,.95-17.35,33.52,33.52,0,0,1,7.53-15.54,23,23,0,0,1,3.95-3.51c.5-.37.94-.59,1.22-.77A2.48,2.48,0,0,1,422.09,421.89Z" style="fill: rgb(38, 50, 56); transform-origin: 414.945px 444.175px;" id="elauwslp23mmo" class="animable"></path><path d="M429.72,439.23c0,.1-1.86.69-4.57,2.34a26.65,26.65,0,0,0-12.75,20.12c-.33,3.16-.06,5.13-.17,5.14a6.42,6.42,0,0,1-.2-1.38,23.51,23.51,0,0,1,0-3.79A25.78,25.78,0,0,1,425,441.26a23.34,23.34,0,0,1,3.43-1.63A6.45,6.45,0,0,1,429.72,439.23Z" style="fill: rgb(38, 50, 56); transform-origin: 420.837px 453.03px;" id="eluj3jbwfmkql" class="animable"></path></g><g id="freepik--speech-bubble--inject-51" class="animable" style="transform-origin: 187.548px 93.1102px;"><path d="M216.9,118.55l-6-10.59a28.34,28.34,0,1,0-6.79,7.56h0Z" style="fill: rgb(255, 255, 255); transform-origin: 187.661px 93.11px;" id="elsydscmuk06" class="animable"></path><path d="M216.9,118.55l-12.84-2.89a.13.13,0,0,1-.1-.15.14.14,0,0,1,0-.06h0l.19.18a28.3,28.3,0,0,1-13.61,5.76,26.55,26.55,0,0,1-4.5.23c-.77,0-1.56-.06-2.35-.13l-2.4-.36a28.63,28.63,0,0,1-17.75-11.38,28.39,28.39,0,0,1-4.8-11,28.91,28.91,0,0,1,.33-12.64,28,28,0,0,1,6.09-11.68,28.57,28.57,0,0,1,10.95-7.82,29,29,0,0,1,12.73-1.95,27.84,27.84,0,0,1,11.68,3.46A28.74,28.74,0,0,1,214,84.73,30.67,30.67,0,0,1,215.25,94,28.22,28.22,0,0,1,211,108v-.13c3.71,6.7,5.47,9.89,5.9,10.65L210.78,108a.15.15,0,0,1,0-.13,28.16,28.16,0,0,0,4.11-14,30.51,30.51,0,0,0-1.26-9.1,28.3,28.3,0,0,0-13.31-16.29,27.45,27.45,0,0,0-11.49-3.38,28.56,28.56,0,0,0-12.5,1.93,28.09,28.09,0,0,0-10.75,7.68,27.52,27.52,0,0,0-6,11.47,28.49,28.49,0,0,0-.34,12.41,27.86,27.86,0,0,0,4.7,10.79,28.27,28.27,0,0,0,17.44,11.26l2.36.36c.79.07,1.56.09,2.32.14a25.89,25.89,0,0,0,4.44-.2,28.26,28.26,0,0,0,13.5-5.6.12.12,0,0,1,.18,0,.14.14,0,0,1,0,.16h0l-.07-.2Z" style="fill: rgb(38, 50, 56); transform-origin: 187.548px 93.1102px;" id="elvs70p122jom" class="animable"></path><path d="M200.19,89.39a13,13,0,1,0-18.85,11.19c-.05,1.54-.1,3.27-.1,3.27l11.37.34s.13-1.83.2-3.47A13,13,0,0,0,200.19,89.39Z" style="fill: rgb(255, 114, 94); transform-origin: 187.197px 90.082px;" id="elbjfyd33cwun" class="animable"></path><path d="M191.68,106.27l-9.77-.29a.73.73,0,0,1-.71-.75h0a.74.74,0,0,1,.76-.72l9.76.29a.74.74,0,0,1,.71.76h0A.73.73,0,0,1,191.68,106.27Z" style="fill: rgb(38, 50, 56); transform-origin: 186.815px 105.39px;" id="el7pdwyw0it27" class="animable"></path><path d="M191.66,106.91l-9.77-.29a.73.73,0,0,0-.75.71.74.74,0,0,0,.71.76l1.07,0,1.34,2.75a1,1,0,0,0,.82.52l3.49.11a.94.94,0,0,0,.85-.49l1.46-2.66.73,0a.72.72,0,0,0,.76-.71A.73.73,0,0,0,191.66,106.91Z" style="fill: rgb(38, 50, 56); transform-origin: 186.755px 109.045px;" id="elz1ygyn4pxak" class="animable"></path><path d="M189.23,111.24s-.25-.1-.66-.23a5.37,5.37,0,0,0-3.3,0,4.38,4.38,0,0,1-.67.22,2.34,2.34,0,0,1,.63-.33,4.76,4.76,0,0,1,3.38,0A1.68,1.68,0,0,1,189.23,111.24Z" style="fill: rgb(69, 90, 100); transform-origin: 186.915px 110.915px;" id="el38cw9576meg" class="animable"></path><path d="M190.9,108.39s-1.76,0-3.94,0-3.94-.15-3.94-.2,1.77,0,3.95,0S190.91,108.34,190.9,108.39Z" style="fill: rgb(69, 90, 100); transform-origin: 186.96px 108.279px;" id="elnmk0jd2rn5f" class="animable"></path><path d="M190.26,109.53a5.7,5.7,0,0,1-1,.07c-.6,0-1.43,0-2.34,0s-1.73,0-2.33-.09a4,4,0,0,1-1-.1,6.82,6.82,0,0,1,1,0l2.33,0,2.32,0A4.88,4.88,0,0,1,190.26,109.53Z" style="fill: rgb(69, 90, 100); transform-origin: 186.925px 109.496px;" id="elgmbyr856trg" class="animable"></path><path d="M188.59,93.45c1.09-3.06,2.25-5.45,2.52-5.34s-.47,2.63-1.56,5.69a31,31,0,0,1-1.73,4c2.38-1.1,4.51-2.61,5.54-5a13.8,13.8,0,0,0,.7-8.58,1.38,1.38,0,0,0-.63-1,1.34,1.34,0,0,0-1.14.17,11.08,11.08,0,0,0-5.57,6.44A10.76,10.76,0,0,0,187,98C187.33,97,187.92,95.34,188.59,93.45Z" style="fill: rgb(255, 255, 255); transform-origin: 190.245px 90.5808px;" id="el3gtu0r0gneb" class="animable"></path><path d="M184,94c-1.26-1.8-2.12-3.38-1.95-3.49s1.26,1.3,2.52,3.1a22.07,22.07,0,0,1,1.53,2.52,7,7,0,0,0-.61-5A9.3,9.3,0,0,0,181,87.3a.94.94,0,0,0-.8,0,.93.93,0,0,0-.36.7,7.52,7.52,0,0,0,1.37,5.6,7.32,7.32,0,0,0,4.68,3.06C185.45,96.05,184.76,95.07,184,94Z" style="fill: rgb(255, 255, 255); transform-origin: 183.032px 91.9353px;" id="el3rcwqxqbhnh" class="animable"></path></g><g id="freepik--Character--inject-51" class="animable" style="transform-origin: 260.662px 266.759px;"><path d="M224.59,399.14l.95,21.92s-21.95,8.34-22.17,12.41l42.57-.33-.1-34.22Z" style="fill: rgb(69, 90, 100); transform-origin: 224.655px 416.195px;" id="elvdww76w1sv" class="animable"></path><path d="M238.69,419.12a1.74,1.74,0,0,1,1.22,2,1.67,1.67,0,0,1-1.95,1.23,1.85,1.85,0,0,1-1.28-2.1,1.73,1.73,0,0,1,2.17-1.05" style="fill: rgb(224, 224, 224); transform-origin: 238.296px 420.748px;" id="elmgwg9j32yld" class="animable"></path><path d="M245.94,433.14l-.15-3.45L205,431.3s-1.89.84-1.66,2.17Z" style="fill: rgb(255, 255, 255); transform-origin: 224.63px 431.58px;" id="el33881vm78uo" class="animable"></path><path d="M224.85,420.85c0,.21,1.05.3,2.08,1s1.58,1.53,1.77,1.44-.13-1.28-1.39-2.06S224.81,420.66,224.85,420.85Z" style="fill: rgb(38, 50, 56); transform-origin: 226.8px 421.985px;" id="eldpzqgtgc7sr" class="animable"></path><path d="M220.4,422.74c0,.2.86.54,1.57,1.42s.93,1.8,1.13,1.79.33-1.19-.57-2.26S220.4,422.54,220.4,422.74Z" style="fill: rgb(38, 50, 56); transform-origin: 221.823px 424.302px;" id="ellgdyemc5xb" class="animable"></path><path d="M217.91,428.1c.19,0,.47-1-.07-2.13s-1.52-1.58-1.61-1.41.52.78,1,1.72S217.7,428.08,217.91,428.1Z" style="fill: rgb(38, 50, 56); transform-origin: 217.188px 426.313px;" id="elnsvwlilxnz" class="animable"></path><path d="M225.19,415.83c.09.19,1-.1,2.21,0s2.1.43,2.2.25-.77-.91-2.16-1S225.08,415.67,225.19,415.83Z" style="fill: rgb(38, 50, 56); transform-origin: 227.395px 415.602px;" id="elstaqg21uqv" class="animable"></path><path d="M288.88,399.14l-.95,21.92s21.95,8.34,22.17,12.41l-42.57-.33.09-34.22Z" style="fill: rgb(69, 90, 100); transform-origin: 288.815px 416.195px;" id="el1hsb3vvdg7v" class="animable"></path><path d="M274.78,419.12a1.73,1.73,0,0,0-1.22,2,1.67,1.67,0,0,0,1.95,1.23,1.84,1.84,0,0,0,1.27-2.1,1.72,1.72,0,0,0-2.16-1.05" style="fill: rgb(224, 224, 224); transform-origin: 275.169px 420.748px;" id="elwjryuflenp" class="animable"></path><path d="M267.53,433.14l.15-3.45,40.76,1.61s1.89.84,1.66,2.17Z" style="fill: rgb(255, 255, 255); transform-origin: 288.825px 431.58px;" id="elpsbmfd2noe" class="animable"></path><path d="M288.62,420.85c0,.21-1.05.3-2.08,1s-1.58,1.53-1.77,1.44.13-1.28,1.39-2.06S288.66,420.66,288.62,420.85Z" style="fill: rgb(38, 50, 56); transform-origin: 286.67px 421.985px;" id="elrtcptndt3ws" class="animable"></path><path d="M293.07,422.74c0,.2-.86.54-1.57,1.42s-.93,1.8-1.13,1.79-.33-1.19.57-2.26S293.06,422.54,293.07,422.74Z" style="fill: rgb(38, 50, 56); transform-origin: 291.647px 424.302px;" id="el3s1vjwciu19" class="animable"></path><path d="M295.56,428.1c-.19,0-.47-1,.07-2.13s1.52-1.58,1.61-1.41-.52.78-.95,1.72S295.77,428.08,295.56,428.1Z" style="fill: rgb(38, 50, 56); transform-origin: 296.282px 426.313px;" id="eldyxxpnnqii9" class="animable"></path><path d="M288.28,415.83c-.09.19-1-.1-2.21,0s-2.1.43-2.21.25.78-.91,2.17-1S288.38,415.67,288.28,415.83Z" style="fill: rgb(38, 50, 56); transform-origin: 286.069px 415.602px;" id="el4zsao2k468k" class="animable"></path><path d="M215.5,233.92c0,1.33,8.62,181.72,8.62,181.72l22.38.21,7.28-153.41s9.35,80.61,9.35,82.39,2.65,71.9,2.65,71.9h23.63V249.52L274.26,225Z" style="fill: rgb(38, 50, 56); transform-origin: 252.455px 320.865px;" id="elocdgemf8qdg" class="animable"></path><path d="M277.35,416.73s0-.14,0-.41,0-.69,0-1.2c0-1.08,0-2.62,0-4.6-.06-4-.18-9.78-.39-16.92-.43-14.29-1.24-34-2.25-55.8s-2-41.49-2.71-55.79c-.34-7.12-.62-12.89-.81-16.91-.09-2-.15-3.52-.2-4.6,0-.51,0-.9,0-1.2a2.12,2.12,0,0,1,0-.41,1.91,1.91,0,0,1,.05.41c0,.29.05.69.09,1.19.07,1.08.16,2.62.29,4.6.23,4,.56,9.78,1,16.9.79,14.27,1.85,34,2.86,55.78s1.77,41.53,2.1,55.82c.16,7.15.22,12.93.22,16.93,0,2,0,3.52,0,4.6q0,.76,0,1.2A2.18,2.18,0,0,1,277.35,416.73Z" style="fill: rgb(69, 90, 100); transform-origin: 274.29px 337.81px;" id="el4iqtmisoiev" class="animable"></path><path d="M236.11,258.91c.14,0,.13,35.11,0,78.42s-.4,78.42-.55,78.42-.13-35.11,0-78.43S236,258.91,236.11,258.91Z" style="fill: rgb(69, 90, 100); transform-origin: 235.833px 337.33px;" id="eliq47s616jg" class="animable"></path><path d="M255.57,253.82a5.35,5.35,0,0,1-1.07.47c-.7.27-1.72.64-3,1.09l-.24.08,0-.26c-.14-2.22-.31-5.18-.46-8.43-.17-3.53-.29-6.72-.36-9,0-1.15,0-2.09,0-2.74a3.61,3.61,0,0,1,.05-1,3.32,3.32,0,0,1,.15,1c.06.65.13,1.58.21,2.73.16,2.31.34,5.5.51,9,.15,3.25.27,6.22.33,8.44l-.26-.17c1.28-.4,2.31-.72,3-.93A4.64,4.64,0,0,1,255.57,253.82Z" style="fill: rgb(69, 90, 100); transform-origin: 252.998px 244.745px;" id="elo7b989il0z" class="animable"></path><path d="M253.57,234.65s.08-.15.35-.25a1.6,1.6,0,0,1,2,1.63,1.83,1.83,0,0,1-1.4,1.63,1.89,1.89,0,0,1-1.94-.93,1.79,1.79,0,0,1,.89-2.51c.26-.1.42-.08.42-.05s-.59.21-1,1a1.38,1.38,0,0,0,.06,1.33,1.45,1.45,0,0,0,1.43.67,1.38,1.38,0,0,0,1-1.17,1.16,1.16,0,0,0-.58-1.15A2,2,0,0,0,253.57,234.65Z" style="fill: rgb(69, 90, 100); transform-origin: 254.142px 235.915px;" id="elmndfcyvjnu" class="animable"></path><path d="M265.65,236.54c-.14,0-.34-.79-.45-1.79s-.07-1.82.08-1.84.34.79.44,1.79S265.79,236.52,265.65,236.54Z" style="fill: rgb(69, 90, 100); transform-origin: 265.458px 234.725px;" id="elqu9kcwlyhxo" class="animable"></path><path d="M267.47,236.35c-.14,0-.26-.85-.27-1.9s.11-1.9.26-1.9.26.85.26,1.9S267.62,236.35,267.47,236.35Z" style="fill: rgb(69, 90, 100); transform-origin: 267.46px 234.45px;" id="el2mo2l92l7kd" class="animable"></path><path d="M235.76,237.62c-.15,0-.37-.94-.5-2.14a4.84,4.84,0,0,1,0-2.19,4.76,4.76,0,0,1,.5,2.14A4.84,4.84,0,0,1,235.76,237.62Z" style="fill: rgb(69, 90, 100); transform-origin: 235.51px 235.455px;" id="elgghwn1lilsm" class="animable"></path><path d="M238,237.8a3.42,3.42,0,0,1-.65-2.24,3.5,3.5,0,0,1,.46-2.29,11.1,11.1,0,0,1,.06,2.27A11.85,11.85,0,0,1,238,237.8Z" style="fill: rgb(69, 90, 100); transform-origin: 237.662px 235.535px;" id="elfmmqmdb3imm" class="animable"></path><path d="M260.32,71.94c-2.23-.46-3.89-2.26-5.86-3.39a10.63,10.63,0,0,0-9.78-.3c-3,1.51-5.28,3.43-5.72,6.8l3.46,4.44" style="fill: rgb(38, 50, 56); transform-origin: 249.64px 73.3464px;" id="el1w3454cyabj" class="animable"></path><path d="M234.6,91.14l3.15,37.12c.54,6.31,2.62,15.47,12.56,14.16h0c8.53-1.78,10-10.17,9.52-16.06-.24-2.79-.43-5.12-.44-5.41,0,0,9.37-1.69,9.26-11.1,0-4.55-.93-13.91-1.82-22.36A17.52,17.52,0,0,0,249,71.81l-.91,0C238.29,72.64,233.52,81.39,234.6,91.14Z" style="fill: rgb(255, 212, 189); transform-origin: 251.55px 107.176px;" id="elxxzapv9zfxn" class="animable"></path><path d="M259.4,120.81a21.9,21.9,0,0,1-12.35-3.18s3.07,6.69,12.43,5.62Z" style="fill: rgb(253, 176, 148); transform-origin: 253.265px 120.498px;" id="eldceurd2qjue" class="animable"></path><path d="M265.54,92.21c-.16.2-1.49-.07-3.16.42s-2.75,1.44-3,1.35,0-.35.49-.78a6,6,0,0,1,2.33-1.26,5.45,5.45,0,0,1,2.56-.16C265.38,91.91,265.62,92.12,265.54,92.21Z" style="fill: rgb(38, 50, 56); transform-origin: 262.418px 92.8413px;" id="elvch6tdsb3f" class="animable"></path><path d="M251.08,94.12c-.23.11-1.3-.71-3-1s-3.08.06-3.24-.11.18-.3.78-.48a6.14,6.14,0,0,1,2.63-.08,5.53,5.53,0,0,1,2.36,1C251.07,93.79,251.19,94.08,251.08,94.12Z" style="fill: rgb(38, 50, 56); transform-origin: 247.959px 93.2374px;" id="elupt7nzyufwo" class="animable"></path><path d="M248.6,94.68a1.05,1.05,0,0,1-1,1.07,1,1,0,0,1-1.09-.91,1,1,0,0,1,1-1.07A1,1,0,0,1,248.6,94.68Z" style="fill: rgb(38, 50, 56); transform-origin: 247.554px 94.76px;" id="elc9y2o5wbw7j" class="animable"></path><path d="M263.5,94.68a1,1,0,0,1-1,1.07,1,1,0,0,1-1.09-.91,1,1,0,0,1,1-1.07A1,1,0,0,1,263.5,94.68Z" style="fill: rgb(38, 50, 56); transform-origin: 262.455px 94.76px;" id="el0vvn3v1g9nzr" class="animable"></path><path d="M256.23,103.36a9.49,9.49,0,0,1,2.33-.48c.37,0,.72-.13.78-.38a1.91,1.91,0,0,0-.28-1.09c-.37-.88-.75-1.81-1.16-2.78-1.61-4-2.79-7.23-2.63-7.3s1.6,3.1,3.21,7.07c.39,1,.76,1.91,1.12,2.8a2.17,2.17,0,0,1,.23,1.44,1,1,0,0,1-.6.56,2.56,2.56,0,0,1-.62.1A9.74,9.74,0,0,1,256.23,103.36Z" style="fill: rgb(38, 50, 56); transform-origin: 257.561px 97.3675px;" id="elj1xi7mq9fy" class="animable"></path><path d="M250,87.05c-.12.37-1.39.23-2.88.45s-2.7.67-2.9.36c-.09-.15.11-.5.59-.86a4.89,4.89,0,0,1,2.13-.83,4.8,4.8,0,0,1,2.27.22C249.78,86.61,250.06,86.88,250,87.05Z" style="fill: rgb(38, 50, 56); transform-origin: 247.104px 87.0432px;" id="elfi4o0qu90y8" class="animable"></path><path d="M265.14,88.5c-.13.3-1.38.11-2.87.21s-2.69.4-2.87.12c-.09-.13.13-.41.63-.68a5,5,0,0,1,2.15-.58,5.25,5.25,0,0,1,2.22.33C264.94,88.11,265.2,88.36,265.14,88.5Z" style="fill: rgb(38, 50, 56); transform-origin: 262.264px 88.2522px;" id="el1r9huq7dl8g" class="animable"></path><path d="M235.53,98.09c-.16-.07-6.51-1.76-6.14,4.67s6.73,4.74,6.74,4.55S235.53,98.09,235.53,98.09Z" style="fill: rgb(255, 212, 189); transform-origin: 232.752px 102.744px;" id="elmi2wvbl49v8" class="animable"></path><path d="M234,105s-.11.08-.3.18a1.12,1.12,0,0,1-.83.06,2.74,2.74,0,0,1-1.42-2.41,3.71,3.71,0,0,1,.22-1.62,1.3,1.3,0,0,1,.79-.91.59.59,0,0,1,.68.27c.1.18.06.31.1.32s.13-.12.06-.38a.68.68,0,0,0-.27-.39.83.83,0,0,0-.63-.13,1.59,1.59,0,0,0-1.11,1.06,3.74,3.74,0,0,0-.29,1.82,2.9,2.9,0,0,0,1.79,2.68,1.17,1.17,0,0,0,1-.23C234,105.14,234.05,105,234,105Z" style="fill: rgb(253, 176, 148); transform-origin: 232.501px 102.777px;" id="elainegp0zr3g" class="animable"></path><path d="M268.77,85.49a13.61,13.61,0,0,1-12.13-2.43c-2.34-1.88-4.17-4.63-7.06-5.44a7.62,7.62,0,0,0-5.82.94,14.62,14.62,0,0,0-4.33,4.18c1.93,4.73.84,10.1-.28,15.09a2.52,2.52,0,0,1-.71,1.5,2,2,0,0,1-2.58-.5A8,8,0,0,1,234,94.68a26.36,26.36,0,0,1-.19-10.43A18,18,0,0,1,238.55,75a17.09,17.09,0,0,1,11.86-4.82,20.94,20.94,0,0,1,12.26,4,12.28,12.28,0,0,1,4.06,4.45" style="fill: rgb(38, 50, 56); transform-origin: 251.075px 84.8899px;" id="elxo8jd6ag15h" class="animable"></path><path d="M267.52,94.25c-.4-2.61-.42-5.87-.81-8.48A15.62,15.62,0,0,1,255.41,82c-1.59-1.45-2.91-3.33-4.92-4.09-2.59-1-5.46.19-8,1.35l.1-.11a11.89,11.89,0,0,0-3.36,3,36.49,36.49,0,0,1-.07,15.57,2.69,2.69,0,0,1-1.36,1.82c-1.38.69-2.29-.29-3.23-1-.69-.51-1.7-.88-2.37-.34a36.32,36.32,0,0,1-3.37-10.71,2.61,2.61,0,0,1-4.77,1.93,5.53,5.53,0,0,0,1.47-2.5,3.39,3.39,0,0,1-4.78-.77L223,84.26l-2.89-.08a15.45,15.45,0,0,0,5.84-4.29,23.6,23.6,0,0,1,5.5-4.78c2.14-1.16,4.94-1.47,6.95-.09.13-3.37,2.79-6.29,6-7.46A21.87,21.87,0,0,1,256,67.35c2.5.73,5,2.49,8.13,5.13a31,31,0,0,1,4.1,4.16c1.84,2.28,5.55,6.07,9.48,5.35L277,85.91c-2.19,1.82-6.36-.27-6.36-.27s2.27,2.65,4.57,2.77l-.88,3.34s-3.54.34-4.85-2.48Z" style="fill: rgb(38, 50, 56); transform-origin: 248.91px 83.2216px;" id="elin7j5gbuqc" class="animable"></path><path d="M239.43,82.74s.34-.48,1-1.26a9.86,9.86,0,0,1,6.35-3.56,6,6,0,0,1,3.36.19c2.28.89,3.8,3.4,6.18,5.1A14.51,14.51,0,0,0,264,86.15a16.56,16.56,0,0,0,1.85.06,1.82,1.82,0,0,1,.76.1c.22.1.46.28.7.42a7.08,7.08,0,0,1,1.79,2.36,5.53,5.53,0,0,0,3.64,2.57,5.92,5.92,0,0,0,1.22.13,1.06,1.06,0,0,0,.43,0s-.59,0-1.6-.28a5.45,5.45,0,0,1-3.38-2.57,7.2,7.2,0,0,0-1.87-2.53,8.25,8.25,0,0,0-.75-.45,2.14,2.14,0,0,0-.95-.16c-.58,0-1.18,0-1.79-.08a14.25,14.25,0,0,1-7.34-2.88,26.62,26.62,0,0,1-3.08-2.8,9.76,9.76,0,0,0-3.23-2.33,6.5,6.5,0,0,0-3.61-.17,12,12,0,0,0-3,1,11.26,11.26,0,0,0-3.44,2.9,9.25,9.25,0,0,0-.7,1C239.47,82.59,239.41,82.73,239.43,82.74Z" style="fill: rgb(69, 90, 100); transform-origin: 256.908px 84.5869px;" id="eltygukr4urx" class="animable"></path><path d="M228.94,87.53s0,.2.13.54a5.1,5.1,0,0,0,.7,1.39,2.51,2.51,0,0,0,2.15,1.07,1.73,1.73,0,0,0,1.31-.78,2.59,2.59,0,0,0,.42-1.59l-.49.09a2.08,2.08,0,0,0,1.7,1.35,2.49,2.49,0,0,0,1.94-.55,3.8,3.8,0,0,0,1.12-1.46,9.8,9.8,0,0,0,.67-2.93,15.79,15.79,0,0,1,.55-2.63,5.05,5.05,0,0,0-.91,2.58,10.83,10.83,0,0,1-.73,2.78,3.48,3.48,0,0,1-1,1.26,2.06,2.06,0,0,1-1.56.45,1.57,1.57,0,0,1-1.3-1L233,85.89l.19,2.3a1.66,1.66,0,0,1-1.28,1.91,2.19,2.19,0,0,1-1.84-.84,6.56,6.56,0,0,1-.8-1.26A2,2,0,0,0,228.94,87.53Z" style="fill: rgb(69, 90, 100); transform-origin: 234.04px 86.2809px;" id="elbqgxyh3h15" class="animable"></path><path d="M230.72,94.7a2.57,2.57,0,0,0,1.74.61,6.1,6.1,0,0,0,4.21-1.45,11.5,11.5,0,0,0,2.73-3.5,5.52,5.52,0,0,0,.74-1.68,8.54,8.54,0,0,0-1,1.49,14.14,14.14,0,0,1-2.74,3.3A6.38,6.38,0,0,1,232.48,95,10.59,10.59,0,0,1,230.72,94.7Z" style="fill: rgb(69, 90, 100); transform-origin: 235.43px 91.9977px;" id="el01i4q6q0wkdz" class="animable"></path><path d="M230.92,95.92a3.33,3.33,0,0,0,1.56.23,8.54,8.54,0,0,0,6.65-3.37,3.25,3.25,0,0,0,.74-1.41c-.08,0-.39.47-1,1.18a9.87,9.87,0,0,1-6.39,3.24A8.14,8.14,0,0,0,230.92,95.92Z" style="fill: rgb(69, 90, 100); transform-origin: 235.395px 93.7671px;" id="elo74zyu89cf" class="animable"></path><path d="M228.72,71.79a11.51,11.51,0,0,0,1.61-.1,10.57,10.57,0,0,1,7.08,2.37c.76.63,1.16,1.1,1.23,1a3.62,3.62,0,0,0-1-1.31,8.87,8.87,0,0,0-3.4-2.06,9.12,9.12,0,0,0-3.95-.41A3.37,3.37,0,0,0,228.72,71.79Z" style="fill: rgb(69, 90, 100); transform-origin: 233.68px 73.1461px;" id="els8i2xfq0mob" class="animable"></path><path d="M237.8,66.94a6.84,6.84,0,0,0-.91,4.38,6.75,6.75,0,0,0,1.56,4.2,20.23,20.23,0,0,1-1-4.23A20,20,0,0,1,237.8,66.94Z" style="fill: rgb(69, 90, 100); transform-origin: 237.642px 71.23px;" id="elhem2ynxjsac" class="animable"></path><path d="M274,81.49a4.4,4.4,0,0,1-1.39.65,7.38,7.38,0,0,1-4.08-.81c-.83-.35-1.71-.8-2.68-1.25A16.81,16.81,0,0,1,263,78.4c-2-1.34-3.89-3.19-6.38-4.55a11.64,11.64,0,0,0-3.88-1.34,7.39,7.39,0,0,0-3.82.47c-2.27,1-3.93,2.42-5.64,2.94a5.39,5.39,0,0,1-4.08-.14,4,4,0,0,1-1.16-1s0,.14.19.37a3,3,0,0,0,.87.81,5.44,5.44,0,0,0,4.28.31c1.82-.51,3.54-2,5.71-2.84a6.93,6.93,0,0,1,3.58-.41,11.4,11.4,0,0,1,3.71,1.29c2.4,1.31,4.34,3.14,6.35,4.49a17.78,17.78,0,0,0,3,1.67c1,.44,1.87.87,2.72,1.2a7.16,7.16,0,0,0,4.27.68,2.79,2.79,0,0,0,1.05-.55C273.93,81.61,274,81.5,274,81.49Z" style="fill: rgb(69, 90, 100); transform-origin: 256.02px 77.4329px;" id="el13jwr985ynj" class="animable"></path><path d="M238.28,75c.08.07.9-1,2.66-2.29A14.57,14.57,0,0,1,248.77,70a25,25,0,0,1,4.62.42,25.08,25.08,0,0,0,3.84.39,8.39,8.39,0,0,0,2.59-.35,2.49,2.49,0,0,0,.88-.39,12.75,12.75,0,0,1-3.46.38,29.31,29.31,0,0,1-3.78-.49,22.91,22.91,0,0,0-4.71-.47,14.12,14.12,0,0,0-8,2.91,13,13,0,0,0-1.89,1.8A3.13,3.13,0,0,0,238.28,75Z" style="fill: rgb(69, 90, 100); transform-origin: 249.49px 72.2465px;" id="el19k0vrb055v" class="animable"></path><path d="M255.15,107.94c0-.17-1.24-.42-2.23-1.51a6.87,6.87,0,0,1-1-1.59c-.23-.44-.4-.72-.47-.69s0,.34.13.83a4.86,4.86,0,0,0,1,1.79,3.89,3.89,0,0,0,1.76,1.1C254.81,108,255.14,108,255.15,107.94Z" style="fill: rgb(38, 50, 56); transform-origin: 253.286px 106.063px;" id="elijiyupnwuum" class="animable"></path><path d="M235.42,123.37l1.84-.89,5.35,10.29,8.5,6.3,5.51-5.2,2.8-12.39,2.31,1s9.06,68.6,8.9,69.39,3.47,37.78,3.47,37.78-19.06,3.78-24.57,2.05-17.8,1-17.71.46-5.27-23.22-5.27-23.22l1.57-62.11Z" style="fill: rgb(250, 250, 250); transform-origin: 250.325px 176.856px;" id="elc57n9be4jqk" class="animable"></path><path d="M251.11,138.89a17,17,0,0,1-2.4-1.48c-1.47-1-3.49-2.35-5.78-3.94l0,0a3.08,3.08,0,0,0-1.65-.29,6.51,6.51,0,0,0-3.67,2.17,11.43,11.43,0,0,0-2.05,3c-.9,1.89-1.33,3.13-1.41,3.1a2.85,2.85,0,0,1,.21-.9,20.23,20.23,0,0,1,.87-2.35,10.88,10.88,0,0,1,2-3.16,10.57,10.57,0,0,1,1.69-1.46,4.88,4.88,0,0,1,2.28-.89,3.54,3.54,0,0,1,1.92.35h0c2.27,1.6,4.26,3,5.67,4.08A17.23,17.23,0,0,1,251.11,138.89Z" style="fill: rgb(38, 50, 56); transform-origin: 242.63px 137.062px;" id="elmq0eefdhzj" class="animable"></path><path d="M270.87,221.31a6.09,6.09,0,0,1-1.37-.31c-.88-.23-2.13-.61-3.67-1.13a85.74,85.74,0,0,1-22.44-11.58c-1.31-.95-2.35-1.75-3-2.33a7.25,7.25,0,0,1-1.05-.94,7,7,0,0,1,1.17.78c.74.53,1.8,1.28,3.14,2.19A101.69,101.69,0,0,0,266,219.52c1.52.56,2.75,1,3.61,1.29A7.94,7.94,0,0,1,270.87,221.31Z" style="fill: rgb(38, 50, 56); transform-origin: 255.105px 213.165px;" id="eleynw3poup8j" class="animable"></path><path d="M251.11,139.07a3.76,3.76,0,0,1,0,.77V142c0,2,0,4.73,0,8.11-.05,6.85-.06,16.31.08,26.75s.39,19.91.59,26.75c.1,3.38.18,6.14.24,8.11,0,.92,0,1.65,0,2.2a3.46,3.46,0,0,1,0,.77,4.37,4.37,0,0,1-.08-.76c0-.55-.09-1.29-.15-2.2-.11-1.91-.25-4.68-.4-8.1-.29-6.85-.6-16.31-.74-26.76s-.07-19.91.07-26.76c.07-3.43.15-6.2.22-8.11,0-.92.07-1.65.1-2.21A4.12,4.12,0,0,1,251.11,139.07Z" style="fill: rgb(38, 50, 56); transform-origin: 251.308px 176.88px;" id="el5fzk2dqrotq" class="animable"></path><path d="M255.31,229.22a49.48,49.48,0,0,1-.48-7.12,50.71,50.71,0,0,1,0-7.13,48.71,48.71,0,0,1,.47,7.12A50,50,0,0,1,255.31,229.22Z" style="fill: rgb(38, 50, 56); transform-origin: 255.068px 222.095px;" id="elr1nl4nglnb" class="animable"></path><path d="M262.07,139.79a11.17,11.17,0,0,1-1.11-2.11c-.63-1.34-1.48-3.22-2.41-5.34l.4.09-.77.66-5,4.25a24.69,24.69,0,0,1-2.09,1.73c-.15-.15,2.84-3,6.73-6.37l.77-.66.27-.23.14.32c.92,2.13,1.71,4,2.26,5.41A11.89,11.89,0,0,1,262.07,139.79Z" style="fill: rgb(38, 50, 56); transform-origin: 256.577px 135.8px;" id="el1nom0yhasw7" class="animable"></path><path d="M205,144.62l-9.21,40.73-2.41,8.13s.31,14.75,7.83,15.35,15.66-3.61,15.66-3.61l4.81-11.14-6.92-11.14S210.75,144,205,144.62Z" style="fill: rgb(69, 90, 100); transform-origin: 207.53px 176.751px;" id="el7yworrywuo9" class="animable"></path><path d="M234.93,124.93l-10.81,10.15s-8.29,1.45-14.75,3.21c-1.82.5-2.82,1.21-4.34,6.33-1,3.48,8.55,71.44,8.55,71.44l-6,42.74s3.93,11.14,11.6,6.33,9.18-15.36,11.28-25,5.42-40.94,5.42-49.67-1.8-50.58-1.8-51.48S234.93,124.93,234.93,124.93Z" style="fill: rgb(69, 90, 100); transform-origin: 220.418px 195.633px;" id="eltr21rq0coz" class="animable"></path><path d="M213.88,137.18l-2.34,44.2h6l5.16-46A11.57,11.57,0,0,0,213.88,137.18Z" style="fill: rgb(255, 114, 94); transform-origin: 217.12px 158.267px;" id="elcvdiv87g6lp" class="animable"></path><path d="M214.54,181.35a6.61,6.61,0,0,1-1.58.25c-1,.12-2.45.26-4.2.42l.14-.07a45.59,45.59,0,0,0-4.3,5.25,21,21,0,0,0-2.35,4.25,11.87,11.87,0,0,0-.81,3.84,12.44,12.44,0,0,0,.51,3.61,2.57,2.57,0,0,1-.44-.9,8.63,8.63,0,0,1-.44-2.71,11.78,11.78,0,0,1,.73-4,19.42,19.42,0,0,1,2.38-4.37,38.85,38.85,0,0,1,4.41-5.27l.06-.06h.08c1.75-.11,3.2-.19,4.21-.23A8.25,8.25,0,0,1,214.54,181.35Z" style="fill: rgb(38, 50, 56); transform-origin: 207.805px 190.108px;" id="eltn55jlm77yj" class="animable"></path><path d="M224.54,217a19.89,19.89,0,0,1-8.19,4.1,45,45,0,0,1,4.1-2A40.29,40.29,0,0,1,224.54,217Z" style="fill: rgb(38, 50, 56); transform-origin: 220.445px 219.05px;" id="elkzk98zklpo" class="animable"></path><polygon points="198.53 301.25 195.82 281.38 209.37 229.6 215.39 229.6 216.75 304.26 207.56 298.84 198.53 301.25" style="fill: rgb(255, 114, 94); transform-origin: 206.285px 266.93px;" id="ell6ftud095" class="animable"></polygon><path d="M216.43,286.74a21,21,0,0,1-2.92-1.9c-.87-.62-1.91-1.36-3-2.23-.56-.42-1.15-.88-1.75-1.38a16.38,16.38,0,0,0-1.86-1.43,5,5,0,0,0-4.21-.64,26.66,26.66,0,0,0-3.44,1.44,8.88,8.88,0,0,1-2.45.76,2.15,2.15,0,0,1-.94,0,13.15,13.15,0,0,0,3.24-1.12,22.52,22.52,0,0,1,3.46-1.56,5.51,5.51,0,0,1,4.62.66,16.35,16.35,0,0,1,1.91,1.48c.58.49,1.16,1,1.72,1.4l3,2.31A25.34,25.34,0,0,1,216.43,286.74Z" style="fill: rgb(38, 50, 56); transform-origin: 206.145px 282.591px;" id="els36zfzossqk" class="animable"></path><path d="M212.39,229.22c.15,0-1.39,11.13-3.42,24.81s-3.8,24.77-3.94,24.75,1.39-11.13,3.42-24.82S212.25,229.2,212.39,229.22Z" style="fill: rgb(38, 50, 56); transform-origin: 208.711px 254px;" id="eltzg3d0n19qh" class="animable"></path><path d="M207.56,298.84a16.56,16.56,0,0,1-.55-2.92c-.28-1.81-.62-4.32-1-7.08s-.64-5.28-.82-7.1a16.13,16.13,0,0,1-.19-3,16.29,16.29,0,0,1,.55,2.91c.28,1.81.62,4.32,1,7.1s.64,5.28.83,7.1A15.39,15.39,0,0,1,207.56,298.84Z" style="fill: rgb(38, 50, 56); transform-origin: 206.282px 288.79px;" id="elsa21akow21" class="animable"></path><path d="M234.7,202.75a4.4,4.4,0,0,1-.24-.79l-.6-2.31c-.51-2.05-1.22-4.94-2.1-8.49L225,163.08c-.73-3.1-1.45-6.12-2.13-9l0-.08,0-.07,5-12.52.2.29-5,0h-.34l.17-.29,4.88-8.26c.57-.93,1-1.68,1.35-2.23a8.19,8.19,0,0,1,.5-.75,4.52,4.52,0,0,1-.41.81l-1.26,2.29-4.73,8.33-.16-.28,5,0h.32l-.12.3-4.94,12.55V154l2.15,9,6.57,28.11,1.94,8.54c.21,1,.37,1.75.5,2.32A4.66,4.66,0,0,1,234.7,202.75Z" style="fill: rgb(38, 50, 56); transform-origin: 228.715px 166.46px;" id="elqbvyhghywdp" class="animable"></path><path d="M209.37,229.6c0-.46,2-22.18,2-22.18l5.55-2.2-1.51,24.38Z" style="fill: rgb(255, 114, 94); transform-origin: 213.145px 217.41px;" id="ely8jvyhhaiz" class="animable"></path><path d="M219.75,196.38a4.74,4.74,0,0,1,.23,1.12,14.49,14.49,0,0,1,.12,3.14,7.27,7.27,0,0,1-.51,2.15,5.46,5.46,0,0,1-1.52,2.05,19.17,19.17,0,0,1-5.14,2.49,33.53,33.53,0,0,1-5.44,1.67,16.29,16.29,0,0,1-4.66.27,10.65,10.65,0,0,1-3.06-.74,3.35,3.35,0,0,1-1-.54,15.77,15.77,0,0,0,4.1.91,16.89,16.89,0,0,0,4.53-.37,36.31,36.31,0,0,0,5.36-1.68,20.17,20.17,0,0,0,5-2.38,5.66,5.66,0,0,0,2-3.87,17.19,17.19,0,0,0,.05-3.08A4.73,4.73,0,0,1,219.75,196.38Z" style="fill: rgb(38, 50, 56); transform-origin: 209.453px 202.855px;" id="el4ma7ccfte57" class="animable"></path><path d="M213.9,202.11a14.56,14.56,0,0,1-.61-2.59c-.32-1.6-.77-3.82-1.11-6.31a34.16,34.16,0,0,1-.3-6.42,9.51,9.51,0,0,1,.38-2.64,22.06,22.06,0,0,1,0,2.65,47.7,47.7,0,0,0,.45,6.34c.34,2.47.73,4.7,1,6.32A12.71,12.71,0,0,1,213.9,202.11Z" style="fill: rgb(38, 50, 56); transform-origin: 212.874px 193.13px;" id="elunlgd5u5qk" class="animable"></path><path d="M208.43,181.55c0,.15-2.25.9-5,2.07s-4.87,2.29-4.94,2.16a18,18,0,0,1,4.74-2.64A18.19,18.19,0,0,1,208.43,181.55Z" style="fill: rgb(38, 50, 56); transform-origin: 203.46px 183.67px;" id="el4g7mkdxs6ak" class="animable"></path><polygon points="225.18 193.18 222.73 169.53 239.57 169.53 236.63 193.18 225.18 193.18" style="fill: rgb(255, 114, 94); transform-origin: 231.15px 181.355px;" id="el5lwr43af9ti" class="animable"></polygon><rect x="220.3" y="168.34" width="20.02" height="1.19" style="fill: rgb(38, 50, 56); transform-origin: 230.31px 168.935px;" id="elks1y6p1wwo" class="animable"></rect><polygon points="223.38 168.93 223.38 166.44 236.67 166.44 238.64 166.91 238.64 168.93 223.38 168.93" style="fill: rgb(38, 50, 56); transform-origin: 231.01px 167.685px;" id="elqryu2eprfbq" class="animable"></polygon><path d="M212.17,185l8.69-11.31s10.78-1.61,11.18-.67.14,2.15-.67,2.15-6.74,1.88-6.74,1.88,9.29,1.08,9.42,1.82.41,2.13-.67,2.71-9.66.7-9.66.7,9.13.68,9.39,1.62A1.64,1.64,0,0,1,232,186c-.94.27-9.92,0-9.92,0v1.21h4.69l4.43,2.55s.13,1.61-1.21,1.75-4.43-1.48-4.43-1.48-4.57,6.58-7.52,7.12a39.75,39.75,0,0,0-5,1.2Z" style="fill: rgb(255, 212, 189); transform-origin: 223.176px 185.538px;" id="el3ct4mw0mxoh" class="animable"></path><path d="M205,440.46l7.4,6.77a15.25,15.25,0,0,0,10.29,4h67.68a15.22,15.22,0,0,0,10.28-4l7.4-6.77Z" style="fill: rgb(255, 114, 94); transform-origin: 256.525px 445.845px;" id="elpkhwqme4ct" class="animable"></path><rect x="202.98" y="432.67" width="108.09" height="8.01" style="fill: rgb(255, 114, 94); transform-origin: 257.025px 436.675px;" id="elg84zm5sfsk" class="animable"></rect><rect x="185.28" y="408.51" width="15.9" height="58.34" rx="6.97" style="fill: rgb(38, 50, 56); transform-origin: 193.23px 437.68px;" id="elv41jf442sjb" class="animable"></rect><path d="M193.85,466.07c-.14,0-.49-12.51-.77-27.95s-.4-28-.25-28,.48,12.51.77,27.95S194,466.07,193.85,466.07Z" style="fill: rgb(69, 90, 100); transform-origin: 193.341px 438.095px;" id="el00uy6y3gathh" class="animable"></path><path d="M193.34,461.71a40.18,40.18,0,0,1-4.09-5.1,41.66,41.66,0,0,1-3.67-5.41,41.08,41.08,0,0,1,4.09,5.1A43.29,43.29,0,0,1,193.34,461.71Z" style="fill: rgb(69, 90, 100); transform-origin: 189.46px 456.455px;" id="el1csda47f89n" class="animable"></path><path d="M193.8,455a46.87,46.87,0,0,1-4.23-5.55,46,46,0,0,1-3.8-5.84A47.86,47.86,0,0,1,190,449.1,47.83,47.83,0,0,1,193.8,455Z" style="fill: rgb(69, 90, 100); transform-origin: 189.785px 449.305px;" id="el47fb5ph7vki" class="animable"></path><path d="M192.83,446.3a47.34,47.34,0,0,1-4-5.91,49.23,49.23,0,0,1-3.55-6.19,49.67,49.67,0,0,1,4,5.91A49.23,49.23,0,0,1,192.83,446.3Z" style="fill: rgb(69, 90, 100); transform-origin: 189.055px 440.25px;" id="elow3crv3ncwi" class="animable"></path><path d="M192.83,439.25a8.37,8.37,0,0,1-1.23-1.79c-.69-1.15-1.63-2.74-2.63-4.52s-1.88-3.41-2.49-4.59a9.11,9.11,0,0,1-.9-2,8.82,8.82,0,0,1,1.23,1.81c.7,1.14,1.63,2.73,2.63,4.51s1.87,3.38,2.49,4.57A9.42,9.42,0,0,1,192.83,439.25Z" style="fill: rgb(69, 90, 100); transform-origin: 189.205px 432.8px;" id="eluaql9d7mozo" class="animable"></path><path d="M192.67,431.5a29.77,29.77,0,0,1-3.95-5.93c-1-1.71-1.77-3.29-2.33-4.45a8.56,8.56,0,0,1-.81-1.94,62.52,62.52,0,0,1,3.6,6.14c1,1.71,1.84,3.24,2.49,4.35A9.66,9.66,0,0,1,192.67,431.5Z" style="fill: rgb(69, 90, 100); transform-origin: 189.125px 425.34px;" id="el71du8ttspw" class="animable"></path><path d="M191.76,423.46a63.7,63.7,0,0,1-5.06-10.2,30.06,30.06,0,0,1,2.76,5A31,31,0,0,1,191.76,423.46Z" style="fill: rgb(69, 90, 100); transform-origin: 189.23px 418.36px;" id="elewlav010gz" class="animable"></path><path d="M200.51,450.28a41.36,41.36,0,0,1-2.87,5.84,39.67,39.67,0,0,1-3.33,5.59,42,42,0,0,1,2.87-5.84A40.4,40.4,0,0,1,200.51,450.28Z" style="fill: rgb(69, 90, 100); transform-origin: 197.41px 455.995px;" id="eltor4qfyvovo" class="animable"></path><path d="M200.32,441.88a25.35,25.35,0,0,1-2.6,6.24c-.85,1.66-1.68,3.13-2.31,4.18a7.39,7.39,0,0,1-1.1,1.65,49.24,49.24,0,0,1,2.95-6.07c.85-1.65,1.61-3.15,2.14-4.25A9.07,9.07,0,0,1,200.32,441.88Z" style="fill: rgb(69, 90, 100); transform-origin: 197.315px 447.915px;" id="elzzcvwymfcka" class="animable"></path><path d="M200.51,430.7a56.06,56.06,0,0,1-2.84,7.08,56.92,56.92,0,0,1-3.32,6.87,111.1,111.1,0,0,1,6.16-13.95Z" style="fill: rgb(69, 90, 100); transform-origin: 197.43px 437.675px;" id="elqmfc9t2bzna" class="animable"></path><path d="M199.66,424.38a36.52,36.52,0,0,1-2,5.71,35.45,35.45,0,0,1-2.52,5.51,36.13,36.13,0,0,1,2-5.71A34.91,34.91,0,0,1,199.66,424.38Z" style="fill: rgb(69, 90, 100); transform-origin: 197.4px 429.99px;" id="el0dv0b7y0zvl" class="animable"></path><path d="M198.93,416.88a28.71,28.71,0,0,1-4.62,11c-.13-.07,1.15-2.43,2.41-5.47S198.79,416.84,198.93,416.88Z" style="fill: rgb(69, 90, 100); transform-origin: 196.615px 422.38px;" id="eldi3tbvg1laa" class="animable"></path><path d="M187.25,407.92,203,435.82V412.66a4.35,4.35,0,0,0-4.17-4.39Z" style="fill: rgb(255, 114, 94); transform-origin: 195.125px 421.87px;" id="eld8yu8t2vo56" class="animable"></path><rect x="200.32" y="421.57" width="2.65" height="21.69" style="fill: rgb(255, 114, 94); transform-origin: 201.645px 432.415px;" id="eli83n6w8dvir" class="animable"></rect><g id="els26v8rg9s0q"><rect x="314" y="408.49" width="15.9" height="58.34" rx="6.97" style="fill: rgb(38, 50, 56); transform-origin: 321.95px 437.66px; transform: rotate(180deg);" class="animable"></rect></g><path d="M321.34,466.05c-.15,0,0-12.52.25-28s.63-28,.77-27.95,0,12.52-.25,28S321.48,466.06,321.34,466.05Z" style="fill: rgb(69, 90, 100); transform-origin: 321.848px 438.075px;" id="elke7b68v0d9m" class="animable"></path><path d="M321.85,461.69a41.53,41.53,0,0,1,3.67-5.4,40.83,40.83,0,0,1,4.08-5.1,40.79,40.79,0,0,1-3.66,5.4A40.33,40.33,0,0,1,321.85,461.69Z" style="fill: rgb(69, 90, 100); transform-origin: 325.725px 456.44px;" id="ellrba5fnbxdm" class="animable"></path><path d="M321.39,454.93a47.84,47.84,0,0,1,3.8-5.85,47.23,47.23,0,0,1,4.23-5.54,46,46,0,0,1-3.8,5.84A46.87,46.87,0,0,1,321.39,454.93Z" style="fill: rgb(69, 90, 100); transform-origin: 325.405px 449.235px;" id="elb44y596d4pr" class="animable"></path><path d="M322.36,446.28a50.4,50.4,0,0,1,3.55-6.18,48,48,0,0,1,4-5.92,49.23,49.23,0,0,1-3.55,6.19A48.67,48.67,0,0,1,322.36,446.28Z" style="fill: rgb(69, 90, 100); transform-origin: 326.135px 440.23px;" id="elpoxo2xla46s" class="animable"></path><path d="M322.36,439.23a9.69,9.69,0,0,1,.9-2c.61-1.18,1.49-2.8,2.49-4.57s1.93-3.37,2.62-4.51a9.91,9.91,0,0,1,1.23-1.81,8.49,8.49,0,0,1-.89,2c-.61,1.18-1.49,2.81-2.49,4.59s-1.94,3.37-2.64,4.52A8.6,8.6,0,0,1,322.36,439.23Z" style="fill: rgb(69, 90, 100); transform-origin: 325.98px 432.785px;" id="elq1df8gjxrq" class="animable"></path><path d="M322.51,431.48a11,11,0,0,1,1-1.83c.65-1.1,1.53-2.64,2.49-4.35a63.71,63.71,0,0,1,3.59-6.13,7.71,7.71,0,0,1-.8,1.93c-.56,1.16-1.37,2.74-2.33,4.46C324.56,429,322.64,431.58,322.51,431.48Z" style="fill: rgb(69, 90, 100); transform-origin: 326.05px 425.326px;" id="el0xwvkukdmgpf" class="animable"></path><path d="M323.43,423.44a31.4,31.4,0,0,1,2.29-5.22,33.08,33.08,0,0,1,2.76-5,30.53,30.53,0,0,1-2.29,5.21A31.91,31.91,0,0,1,323.43,423.44Z" style="fill: rgb(69, 90, 100); transform-origin: 325.955px 418.33px;" id="elx02eap7n4x8" class="animable"></path><path d="M314.68,450.26a41.16,41.16,0,0,1,3.33,5.59,40.46,40.46,0,0,1,2.86,5.84,41.43,41.43,0,0,1-3.32-5.59A40.08,40.08,0,0,1,314.68,450.26Z" style="fill: rgb(69, 90, 100); transform-origin: 317.775px 455.975px;" id="ellpwnttuygsh" class="animable"></path><path d="M314.86,441.86a9.84,9.84,0,0,1,.93,1.75c.53,1.1,1.28,2.6,2.14,4.25a49,49,0,0,1,2.94,6.07,8.32,8.32,0,0,1-1.1-1.65c-.62-1-1.45-2.52-2.31-4.18A25.84,25.84,0,0,1,314.86,441.86Z" style="fill: rgb(69, 90, 100); transform-origin: 317.865px 447.895px;" id="elvza8zbb91be" class="animable"></path><path d="M314.68,430.68a111.1,111.1,0,0,1,6.16,13.95,54.34,54.34,0,0,1-3.32-6.87A56.06,56.06,0,0,1,314.68,430.68Z" style="fill: rgb(69, 90, 100); transform-origin: 317.76px 437.655px;" id="ela7cmlt2dult" class="animable"></path><path d="M315.53,424.36a35.46,35.46,0,0,1,2.51,5.51,33.85,33.85,0,0,1,2,5.71,36,36,0,0,1-2.51-5.51A36.52,36.52,0,0,1,315.53,424.36Z" style="fill: rgb(69, 90, 100); transform-origin: 317.785px 429.97px;" id="el23gnfne1kku" class="animable"></path><path d="M316.25,416.86c.15,0,.94,2.53,2.21,5.56s2.55,5.4,2.41,5.47a28.71,28.71,0,0,1-4.62-11Z" style="fill: rgb(69, 90, 100); transform-origin: 318.565px 422.375px;" id="elnuvgfe43bos" class="animable"></path><path d="M326.79,407.35l-15.72,27.31V412a4.29,4.29,0,0,1,4.16-4.29Z" style="fill: rgb(255, 114, 94); transform-origin: 318.93px 421.005px;" id="eltfqkjhrcar" class="animable"></path><rect x="311.07" y="420.41" width="2.93" height="20.27" style="fill: rgb(255, 114, 94); transform-origin: 312.535px 430.545px;" id="elp8jjsvmpkbh" class="animable"></rect><path d="M314,440.75c0,.14-25.57.26-57.09.26s-57.1-.12-57.1-.26,25.56-.26,57.1-.26S314,440.61,314,440.75Z" style="fill: rgb(38, 50, 56); transform-origin: 256.905px 440.75px;" id="el80eyclc83q" class="animable"></path><path d="M317.46,131.73s-3.69-.34-5.44-2.22-9.11-14.75-9.11-14.75,1.5-1.31,3.77.67a61.41,61.41,0,0,1,4.76,5.2l-2.67-11.28c-.6-2.53-1.35-6.4-.16-7s2.45,4.22,3.39,6.16,2.22,4.72,2.22,4.72c0,.17-2.14-10-2-12.91.12-2.1,2.74-1.6,3.07.79,0,0,.7-2.52,2-.91s3.28,11.53,3.94,11.28-.48-8.4.51-9.28c.55-.5,1.45.19,1.83,2.24s3.18,17.6,3.05,19.81a5.27,5.27,0,0,1-.93,3.08Z" style="fill: rgb(255, 212, 189); transform-origin: 314.767px 115.363px;" id="el3vmhq09v7c" class="animable"></path><path d="M321.27,119.78c0-.06-.64.28-1.43,1a10.79,10.79,0,0,0-2.36,3.61l.47-.09-.13-.13a12.24,12.24,0,0,0-3.66-2.49,4,4,0,0,0-1.76-.5,22.17,22.17,0,0,1,5,3.39l.13.12.31.3.15-.39A17.69,17.69,0,0,1,321.27,119.78Z" style="fill: rgb(253, 176, 148); transform-origin: 316.835px 122.382px;" id="eln4836wskgs" class="animable"></path><path d="M315.24,100.69a41.52,41.52,0,0,0,.82,6.43,23.91,23.91,0,0,0,1.63,6.27c.15,0-.5-2.85-1.08-6.37S315.41,100.65,315.24,100.69Z" style="fill: rgb(253, 176, 148); transform-origin: 316.476px 107.04px;" id="el8rqf0nthod3" class="animable"></path><polygon points="314.13 129.79 316.46 148.01 328.47 144.73 325.2 125.05 314.13 129.79" style="fill: rgb(255, 212, 189); transform-origin: 321.3px 136.53px;" id="el8e0azavc02d" class="animable"></polygon><path d="M291.53,133.87l22.57,28.81-2.53-26,17.7-6.94s6.16,47.15,6.76,53.73c.35,3.77-5.56,9.73-15.72,11.77s-33.22-25.7-33.22-25.7Z" style="fill: rgb(69, 90, 100); transform-origin: 311.567px 162.544px;" id="el8m353vkimj7" class="animable"></path><path d="M261.79,123l3.93,3.58,25.81,7.3-3,35.06-2.09,56.12s12.75,28.46,9.63,29.29-11.42-5.19-11.42-5.19-11.41-16.51-12.25-22.39-8.94-41.43-8.94-41.43Z" style="fill: rgb(69, 90, 100); transform-origin: 279.176px 188.714px;" id="eltsfdri425un" class="animable"></path><path d="M269.9,196.1a4.21,4.21,0,0,1,.08-.79c.09-.57.2-1.32.34-2.26.31-2,.75-4.84,1.29-8.3,1.05-7,2.42-16.71,3.62-27.46.6-5.37,1.11-10.5,1.54-15.17.2-2.33.38-4.55.56-6.63.08-1,.25-2.09-.32-2.76a2.53,2.53,0,0,0-2.42-.47,10.59,10.59,0,0,1-2.54.29,4.83,4.83,0,0,1-2.19-.74,9.63,9.63,0,0,1-2.54-2.6c-.57-.82-1-1.49-1.22-1.94a4.46,4.46,0,0,1-.38-.7,4.06,4.06,0,0,1,.46.65c.29.43.71,1.08,1.3,1.87a9.53,9.53,0,0,0,2.54,2.47,4.56,4.56,0,0,0,2.05.66,10.7,10.7,0,0,0,2.46-.33,5.36,5.36,0,0,1,1.4-.09,2,2,0,0,1,1.38.67,2.33,2.33,0,0,1,.52,1.49,11.56,11.56,0,0,1-.07,1.56c-.16,2.08-.33,4.31-.52,6.64-.39,4.68-.89,9.81-1.49,15.19-1.2,10.76-2.63,20.46-3.78,27.46-.58,3.5-1.08,6.32-1.45,8.27-.18.94-.33,1.68-.44,2.24A5.54,5.54,0,0,1,269.9,196.1Z" style="fill: rgb(38, 50, 56); transform-origin: 271.776px 161.335px;" id="elxnvrn79xw3" class="animable"></path><path d="M285.16,158.16a14,14,0,0,1-3.71.32,13.82,13.82,0,0,1-3.72-.2,26.67,26.67,0,0,1,7.43-.12Z" style="fill: rgb(38, 50, 56); transform-origin: 281.445px 158.241px;" id="eltehmlymo0sc" class="animable"></path><path d="M287.48,227.79a13.22,13.22,0,0,1-1.66-2.33c-.94-1.48-2.17-3.59-3.44-6s-2.34-4.55-3.11-6.13a15.69,15.69,0,0,1-1.16-2.6,15.6,15.6,0,0,1,1.48,2.43c.86,1.54,2,3.69,3.25,6.06s2.44,4.48,3.3,6A19,19,0,0,1,287.48,227.79Z" style="fill: rgb(38, 50, 56); transform-origin: 282.795px 219.26px;" id="elg30qtwbrxne" class="animable"></path><path d="M291,134.82c.14,0-.34,7.66-1.08,17.09S288.43,169,288.28,169s.35-7.66,1.09-17.09S290.83,134.81,291,134.82Z" style="fill: rgb(38, 50, 56); transform-origin: 289.639px 151.91px;" id="elep0pfwjd9t" class="animable"></path><path d="M315.46,182.19a12.1,12.1,0,0,1-.61-2.82,50.58,50.58,0,0,1-.33-6.93c0-2.71,0-5.14-.18-6.9s-.32-2.84-.24-2.86a11,11,0,0,1,.61,2.82,50.74,50.74,0,0,1,.33,6.94c0,2.7,0,5.13.18,6.89A23.18,23.18,0,0,1,315.46,182.19Z" style="fill: rgb(38, 50, 56); transform-origin: 314.768px 172.435px;" id="elmfkdcgv5rq" class="animable"></path><path d="M200.29,440.46c-.12-.08.65-1.73,1.32-3.9a19.71,19.71,0,0,1,1.37-3.89,14.47,14.47,0,0,1-.87,4.05A9.64,9.64,0,0,1,200.29,440.46Z" style="fill: rgb(38, 50, 56); transform-origin: 201.629px 436.565px;" id="el2nm04x1te8o" class="animable"></path><path d="M313.94,440.9a34.94,34.94,0,0,1-1.61-4c-.87-2.23-1.42-4.13-1.26-4.18a24.32,24.32,0,0,1,1.75,4A12.73,12.73,0,0,1,313.94,440.9Z" style="fill: rgb(38, 50, 56); transform-origin: 312.491px 436.81px;" id="el2wm18g0j18" class="animable"></path></g><defs>     <filter id="active" height="200%">         <feMorphology in="SourceAlpha" result="DILATED" operator="dilate" radius="2"></feMorphology>                <feFlood flood-color="#32DFEC" flood-opacity="1" result="PINK"></feFlood>        <feComposite in="PINK" in2="DILATED" operator="in" result="OUTLINE"></feComposite>        <feMerge>            <feMergeNode in="OUTLINE"></feMergeNode>            <feMergeNode in="SourceGraphic"></feMergeNode>        </feMerge>    </filter>    <filter id="hover" height="200%">        <feMorphology in="SourceAlpha" result="DILATED" operator="dilate" radius="2"></feMorphology>                <feFlood flood-color="#ff0000" flood-opacity="0.5" result="PINK"></feFlood>        <feComposite in="PINK" in2="DILATED" operator="in" result="OUTLINE"></feComposite>        <feMerge>            <feMergeNode in="OUTLINE"></feMergeNode>            <feMergeNode in="SourceGraphic"></feMergeNode>        </feMerge>            <feColorMatrix type="matrix" values="0   0   0   0   0                0   1   0   0   0                0   0   0   0   0                0   0   0   1   0 "></feColorMatrix>    </filter></defs></svg>